<svg width="91" height="104" viewBox="0 0 91 104" fill="none" xmlns="http://www.w3.org/2000/svg">
<g filter="url(#filter0_d)">
<path d="M16.7908 51.904C16.7908 40.832 19.1268 32.128 23.7988 25.792C28.5348 19.456 35.7988 16.288 45.5908 16.288C55.3188 16.288 62.5508 19.488 67.2868 25.888C72.0228 32.224 74.3908 40.896 74.3908 51.904C74.3908 62.976 72.0228 71.712 67.2868 78.112C62.5508 84.448 55.3188 87.616 45.5908 87.616C35.7988 87.616 28.5348 84.448 23.7988 78.112C19.1268 71.712 16.7908 62.976 16.7908 51.904ZM53.3668 51.904C53.3668 46.784 52.8548 42.944 51.8308 40.384C50.8068 37.76 48.7268 36.448 45.5908 36.448C42.3908 36.448 40.2788 37.76 39.2548 40.384C38.2308 42.944 37.7188 46.784 37.7188 51.904C37.7188 57.088 38.2308 60.992 39.2548 63.616C40.2788 66.176 42.3908 67.456 45.5908 67.456C48.7268 67.456 50.8068 66.176 51.8308 63.616C52.8548 60.992 53.3668 57.088 53.3668 51.904Z" fill="white"/>
<path d="M23.7987 25.792L22.9978 25.1933L22.9939 25.1985L23.7987 25.792ZM67.2868 25.888L66.4829 26.4828L66.4858 26.4867L67.2868 25.888ZM67.2868 78.112L68.0877 78.7107L68.0906 78.7068L67.2868 78.112ZM23.7987 78.112L22.991 78.7016L22.9978 78.7107L23.7987 78.112ZM51.8307 40.384L50.8991 40.7476L50.9023 40.7554L51.8307 40.384ZM39.2547 40.384L40.1833 40.7554L40.1863 40.7475L39.2547 40.384ZM39.2547 63.616L38.3231 63.9796L38.3263 63.9874L39.2547 63.616ZM51.8307 63.616L52.7593 63.9874L52.7623 63.9795L51.8307 63.616ZM17.7908 51.904C17.7908 40.9612 20.1007 32.4922 24.6036 26.3855L22.9939 25.1985C18.1528 31.7638 15.7908 40.7028 15.7908 51.904H17.7908ZM24.5997 26.3907C29.102 20.3674 36.0306 17.288 45.5908 17.288V15.288C35.5669 15.288 27.9675 18.5446 22.9978 25.1933L24.5997 26.3907ZM45.5908 17.288C55.0805 17.288 61.9779 20.395 66.4829 26.4828L68.0906 25.2932C63.1236 18.581 55.557 15.288 45.5908 15.288V17.288ZM66.4858 26.4867C71.0506 32.5937 73.3908 41.0292 73.3908 51.904H75.3908C75.3908 40.7628 72.9949 31.8543 68.0877 25.2893L66.4858 26.4867ZM73.3908 51.904C73.3908 62.8435 71.0502 71.3451 66.4829 77.5172L68.0906 78.7068C72.9953 72.0789 75.3908 63.1085 75.3908 51.904H73.3908ZM66.4858 77.5133C61.9822 83.5383 55.0843 86.616 45.5908 86.616V88.616C55.5532 88.616 63.1193 85.3577 68.0877 78.7107L66.4858 77.5133ZM45.5908 86.616C36.0306 86.616 29.102 83.5366 24.5997 77.5133L22.9978 78.7107C27.9675 85.3594 35.5669 88.616 45.5908 88.616V86.616ZM24.6064 77.5224C20.1003 71.3497 17.7908 62.846 17.7908 51.904H15.7908C15.7908 63.106 18.1532 72.0743 22.9911 78.7016L24.6064 77.5224ZM54.3668 51.904C54.3668 46.7468 53.8552 42.7525 52.7592 40.0126L50.9023 40.7554C51.8543 43.1355 52.3668 46.8212 52.3668 51.904H54.3668ZM52.7623 40.0205C52.1844 38.5394 51.2827 37.3724 50.0363 36.5862C48.798 35.8052 47.2962 35.448 45.5908 35.448V37.448C47.0214 37.448 48.1275 37.7468 48.9692 38.2778C49.8028 38.8036 50.4531 39.6046 50.8992 40.7475L52.7623 40.0205ZM45.5908 35.448C43.857 35.448 42.333 35.8036 41.0791 36.5826C39.8155 37.3675 38.9028 38.5351 38.3232 40.0205L40.1863 40.7475C40.6307 39.6089 41.286 38.8085 42.1344 38.2814C42.9925 37.7484 44.1245 37.448 45.5908 37.448V35.448ZM38.3263 40.0126C37.2303 42.7525 36.7188 46.7468 36.7188 51.904H38.7188C38.7188 46.8212 39.2312 43.1355 40.1832 40.7554L38.3263 40.0126ZM36.7188 51.904C36.7188 57.1258 37.2306 61.1798 38.3232 63.9795L40.1863 63.2525C39.2309 60.8042 38.7188 57.0502 38.7188 51.904H36.7188ZM38.3263 63.9874C38.909 65.4442 39.8253 66.5857 41.0884 67.3512C42.3406 68.1101 43.861 68.456 45.5908 68.456V66.456C44.1205 66.456 42.9849 66.1619 42.1251 65.6408C41.2762 65.1263 40.6245 64.3478 40.1832 63.2446L38.3263 63.9874ZM45.5908 68.456C47.292 68.456 48.7903 68.1086 50.0268 67.3477C51.2729 66.5808 52.1782 65.4398 52.7592 63.9874L50.9023 63.2446C50.4593 64.3522 49.8126 65.1312 48.9787 65.6443C48.1352 66.1634 47.0255 66.456 45.5908 66.456V68.456ZM52.7623 63.9795C53.8549 61.1798 54.3668 57.1258 54.3668 51.904H52.3668C52.3668 57.0502 51.8546 60.8042 50.8992 63.2525L52.7623 63.9795Z" fill="#263238"/>
</g>
<defs>
<filter id="filter0_d" x="0.790527" y="0.288025" width="89.6" height="103.328" filterUnits="userSpaceOnUse" color-interpolation-filters="sRGB">
<feFlood flood-opacity="0" result="BackgroundImageFix"/>
<feColorMatrix in="SourceAlpha" type="matrix" values="0 0 0 0 0 0 0 0 0 0 0 0 0 0 0 0 0 0 127 0"/>
<feOffset/>
<feGaussianBlur stdDeviation="7.5"/>
<feColorMatrix type="matrix" values="0 0 0 0 0 0 0 0 0 0 0 0 0 0 0 0 0 0 0.25 0"/>
<feBlend mode="normal" in2="BackgroundImageFix" result="effect1_dropShadow"/>
<feBlend mode="normal" in="SourceGraphic" in2="effect1_dropShadow" result="shape"/>
</filter>
</defs>
</svg>
