<svg width="70" height="43" viewBox="0 0 70 43" fill="none" xmlns="http://www.w3.org/2000/svg">
<mask id="mask0" mask-type="alpha" maskUnits="userSpaceOnUse" x="0" y="0" width="70" height="43">
<rect width="69.6703" height="42.5531" fill="#C4C4C4"/>
</mask>
<g mask="url(#mask0)">
<rect x="-4.17188" width="76.3453" height="5.00625" fill="#263238"/>
<rect width="44.7476" height="4.12916" transform="matrix(0.173648 -0.984808 -0.984808 -0.173648 5.85156 45.8799)" fill="#263238"/>
<rect x="63.7334" y="45.9624" width="45.0961" height="4.12916" transform="rotate(-100 63.7334 45.9624)" fill="#263238"/>
<path d="M11.6992 21.4623C14.4884 21.9541 16.9692 23.5271 18.5957 25.8353C20.2223 28.1435 20.8615 30.9978 20.3726 33.7703C19.8837 36.5428 18.3069 39.0063 15.989 40.619C13.671 42.2317 10.8019 42.8614 8.01272 42.3696L9.85598 31.9159L11.6992 21.4623Z" fill="#C6D7FF"/>
<path d="M58.0762 21.4623C55.287 21.9541 52.8062 23.5271 51.1797 25.8353C49.5531 28.1435 48.9139 30.9978 49.4028 33.7703C49.8917 36.5428 51.4685 39.0063 53.7864 40.619C56.1044 42.2317 58.9735 42.8614 61.7627 42.3696L59.9194 31.9159L58.0762 21.4623Z" fill="#C6D7FF"/>
<ellipse cx="35.0439" cy="25.7658" rx="16.6875" ry="16.5876" fill="#263238"/>
<path fill-rule="evenodd" clip-rule="evenodd" d="M37.1746 23.7978L33.0496 27.923L31.4104 26.2874L29.7712 24.6518L28.7006 25.7224L27.6299 26.793L30.3394 29.5003L33.0489 32.2076L38.2452 27.0112L43.4415 21.8149L42.3706 20.7438L41.2996 19.6729L37.1746 23.7978Z" fill="white"/>
</g>
</svg>
