<svg width="70" height="43" viewBox="0 0 70 43" fill="none" xmlns="http://www.w3.org/2000/svg">
<mask id="mask0" mask-type="alpha" maskUnits="userSpaceOnUse" x="0" y="0" width="70" height="43">
<rect width="69.6703" height="42.5531" fill="#C4C4C4"/>
</mask>
<g mask="url(#mask0)">
<rect x="-4.17212" width="76.3453" height="5.00625" fill="#263238"/>
<rect width="44.7476" height="4.12916" transform="matrix(0.173648 -0.984808 -0.984808 -0.173648 5.85156 45.8801)" fill="#263238"/>
<rect x="63.7334" y="45.9624" width="45.0961" height="4.12916" transform="rotate(-100 63.7334 45.9624)" fill="#263238"/>
<path d="M11.6997 21.4622C14.4889 21.954 16.9696 23.527 18.5962 25.8352C20.2228 28.1434 20.8619 30.9977 20.3731 33.7702C19.8842 36.5426 18.3074 39.0062 15.9895 40.6189C13.6715 42.2316 10.8024 42.8613 8.01321 42.3694L9.85646 31.9158L11.6997 21.4622Z" fill="#C6D7FF"/>
<path d="M58.0762 21.4622C55.287 21.954 52.8062 23.527 51.1797 25.8352C49.5531 28.1434 48.9139 30.9977 49.4028 33.7702C49.8917 36.5426 51.4685 39.0062 53.7864 40.6189C56.1044 42.2316 58.9735 42.8613 61.7627 42.3694L59.9194 31.9158L58.0762 21.4622Z" fill="#C6D7FF"/>
<ellipse cx="35.0437" cy="25.7657" rx="16.6875" ry="16.5876" fill="#263238"/>
<path fill-rule="evenodd" clip-rule="evenodd" d="M37.1739 23.7977L33.0489 27.9228L31.4097 26.2873L29.7705 24.6517L28.6999 25.7223L27.6292 26.7929L30.3387 29.5002L33.0481 32.2075L38.2445 27.0111L43.4408 21.8148L42.3698 20.7437L41.2989 19.6727L37.1739 23.7977Z" fill="white"/>
</g>
</svg>
