<svg width="54" height="58" viewBox="0 0 54 58" fill="none" xmlns="http://www.w3.org/2000/svg">
<g filter="url(#filter0_d)">
<path d="M44.5 5.5V50.5H29.5V41.75H24.5V50.5H9.5V5.5H44.5ZM34.5 15.5H39.5V10.5H34.5V15.5ZM24.5 15.5H29.5V10.5H24.5V15.5ZM14.5 15.5H19.5V10.5H14.5V15.5ZM34.5 25.5H39.5V20.5H34.5V25.5ZM24.5 25.5H29.5V20.5H24.5V25.5ZM14.5 25.5H19.5V20.5H14.5V25.5ZM34.5 35.5H39.5V30.5H34.5V35.5ZM24.5 35.5H29.5V30.5H24.5V35.5ZM14.5 35.5H19.5V30.5H14.5V35.5ZM34.5 45.5H39.5V40.5H34.5V45.5ZM14.5 45.5H19.5V40.5H14.5V45.5ZM49.5 0.5H4.5V55.5H49.5V0.5Z" fill="white"/>
</g>
<defs>
<filter id="filter0_d" x="0.5" y="0.5" width="53" height="63" filterUnits="userSpaceOnUse" color-interpolation-filters="sRGB">
<feFlood flood-opacity="0" result="BackgroundImageFix"/>
<feColorMatrix in="SourceAlpha" type="matrix" values="0 0 0 0 0 0 0 0 0 0 0 0 0 0 0 0 0 0 127 0"/>
<feOffset dy="4"/>
<feGaussianBlur stdDeviation="2"/>
<feColorMatrix type="matrix" values="0 0 0 0 0 0 0 0 0 0 0 0 0 0 0 0 0 0 0.25 0"/>
<feBlend mode="normal" in2="BackgroundImageFix" result="effect1_dropShadow"/>
<feBlend mode="normal" in="SourceGraphic" in2="effect1_dropShadow" result="shape"/>
</filter>
</defs>
</svg>
