<svg width="22" height="23" viewBox="0 0 22 23" fill="none" xmlns="http://www.w3.org/2000/svg">
<path fill-rule="evenodd" clip-rule="evenodd" d="M1.06066 12.4103C0.779356 12.129 0.589393 11.7794 0.53256 11.4384C0.475728 11.0974 0.556683 10.7929 0.757614 10.592L9.84899 1.50062C10.0499 1.29969 10.3544 1.21874 10.6954 1.27557C11.0364 1.3324 11.386 1.52236 11.6673 1.80367C11.9486 2.08497 12.1385 2.43457 12.1954 2.77557C12.2522 3.11656 12.1712 3.42101 11.9703 3.62194L2.87893 12.7133C2.678 12.9142 2.37355 12.9952 2.03256 12.9384C1.69157 12.8815 1.34196 12.6916 1.06066 12.4103Z" fill="white"/>
<path fill-rule="evenodd" clip-rule="evenodd" d="M0.5 11.5C0.5 11.1022 0.658035 10.7206 0.93934 10.4393C1.22064 10.158 1.60218 10 2 10H20C20.3978 10 20.7794 10.158 21.0607 10.4393C21.342 10.7206 21.5 11.1022 21.5 11.5C21.5 11.8978 21.342 12.2794 21.0607 12.5607C20.7794 12.842 20.3978 13 20 13H2C1.60218 13 1.22064 12.842 0.93934 12.5607C0.658035 12.2794 0.5 11.8978 0.5 11.5Z" fill="white"/>
<path fill-rule="evenodd" clip-rule="evenodd" d="M1.06068 10.5607C1.34198 10.2794 1.69158 10.0894 2.03258 10.0326C2.37357 9.97573 2.67802 10.0567 2.87895 10.2576L11.9703 19.349C12.1713 19.5499 12.2522 19.8544 12.1954 20.1954C12.1385 20.5364 11.9486 20.886 11.6673 21.1673C11.386 21.4486 11.0364 21.6385 10.6954 21.6954C10.3544 21.7522 10.0499 21.6712 9.849 21.4703L0.757632 12.3789C0.5567 12.178 0.475746 11.8736 0.532578 11.5326C0.58941 11.1916 0.779373 10.842 1.06068 10.5607Z" fill="white"/>
</svg>
