<svg width="47" height="45" viewBox="0 0 47 45" fill="none" xmlns="http://www.w3.org/2000/svg">
<g filter="url(#filter0_d)">
<path d="M41.4869 13.5056C41.2733 12.7133 40.8559 11.9906 40.2763 11.4097C39.6967 10.8288 38.975 10.4098 38.1831 10.1944C35.2469 9.38814 23.5 9.37501 23.5 9.37501C23.5 9.37501 11.755 9.36189 8.81688 10.1325C8.02549 10.3578 7.3053 10.7827 6.72544 11.3665C6.14559 11.9503 5.72554 12.6734 5.50563 13.4663C4.73126 16.4025 4.72376 22.4925 4.72376 22.4925C4.72376 22.4925 4.71626 28.6125 5.48501 31.5188C5.91626 33.1256 7.18188 34.395 8.79063 34.8281C11.7569 35.6344 23.4719 35.6475 23.4719 35.6475C23.4719 35.6475 35.2188 35.6606 38.155 34.8919C38.9472 34.6769 39.6695 34.2589 40.2506 33.6791C40.8317 33.0993 41.2514 32.378 41.4681 31.5863C42.2444 28.6519 42.25 22.5638 42.25 22.5638C42.25 22.5638 42.2875 16.4419 41.4869 13.5056ZM19.7425 28.1344L19.7519 16.8844L29.515 22.5188L19.7425 28.1344Z" fill="white"/>
</g>
<defs>
<filter id="filter0_d" x="-3" y="0" width="53" height="53" filterUnits="userSpaceOnUse" color-interpolation-filters="sRGB">
<feFlood flood-opacity="0" result="BackgroundImageFix"/>
<feColorMatrix in="SourceAlpha" type="matrix" values="0 0 0 0 0 0 0 0 0 0 0 0 0 0 0 0 0 0 127 0"/>
<feOffset dy="4"/>
<feGaussianBlur stdDeviation="2"/>
<feColorMatrix type="matrix" values="0 0 0 0 0 0 0 0 0 0 0 0 0 0 0 0 0 0 0.25 0"/>
<feBlend mode="normal" in2="BackgroundImageFix" result="effect1_dropShadow"/>
<feBlend mode="normal" in="SourceGraphic" in2="effect1_dropShadow" result="shape"/>
</filter>
</defs>
</svg>
