<svg width="21" height="11" viewBox="0 0 21 11" fill="none" xmlns="http://www.w3.org/2000/svg">
<path d="M8.0001 8.00004V10C8.0001 10.1769 8.07034 10.3464 8.19536 10.4714C8.32039 10.5965 8.48996 10.6667 8.66677 10.6667H20.0001C20.1769 10.6667 20.3465 10.5965 20.4715 10.4714C20.5965 10.3464 20.6668 10.1769 20.6668 10V3.33338C20.6668 3.15656 20.5965 2.98699 20.4715 2.86197C20.3465 2.73695 20.1769 2.66671 20.0001 2.66671H15.3334V1.68671C15.3334 1.5099 15.2632 1.34033 15.1382 1.2153C15.0131 1.09028 14.8436 1.02004 14.6668 1.02004C14.49 1.02004 14.3204 1.09028 14.1954 1.2153C14.0703 1.34033 14.0001 1.5099 14.0001 1.68671V2.66671H12.6668V0.280042C11.5339 0.0950152 10.388 0.00138006 9.2401 4.2409e-05C6.70864 -0.0107263 4.20553 0.533129 1.90677 1.59338C1.52843 1.77192 1.20924 2.05525 0.987087 2.40975C0.764933 2.76425 0.649136 3.17504 0.653436 3.59338V8.00004H8.0001ZM19.3334 9.33338H9.33344V4.00004H14.0001V4.28004C14.0001 4.45685 14.0703 4.62642 14.1954 4.75145C14.3204 4.87647 14.49 4.94671 14.6668 4.94671C14.8436 4.94671 15.0131 4.87647 15.1382 4.75145C15.2632 4.62642 15.3334 4.45685 15.3334 4.28004V4.00004H19.3334V9.33338Z" fill="white"/>
</svg>
