<svg width="21" height="21" viewBox="0 0 21 21" fill="none" xmlns="http://www.w3.org/2000/svg">
<path d="M9.24026 8.79326C11.6188 8.79326 13.5469 6.8651 13.5469 4.48659C13.5469 2.10808 11.6188 0.179924 9.24026 0.179924C6.86175 0.179924 4.93359 2.10808 4.93359 4.48659C4.93359 6.8651 6.86175 8.79326 9.24026 8.79326Z" fill="white"/>
<path d="M12 16.6667H16.6667V17.6H12V16.6667Z" fill="white"/>
<path d="M8.0001 18V20C8.0001 20.1769 8.07034 20.3464 8.19536 20.4714C8.32039 20.5965 8.48996 20.6667 8.66677 20.6667H20.0001C20.1769 20.6667 20.3465 20.5965 20.4715 20.4714C20.5965 20.3464 20.6668 20.1769 20.6668 20V13.3334C20.6668 13.1566 20.5965 12.987 20.4715 12.862C20.3465 12.7369 20.1769 12.6667 20.0001 12.6667H15.3334V11.6867C15.3334 11.5099 15.2632 11.3403 15.1382 11.2153C15.0131 11.0903 14.8436 11.02 14.6668 11.02C14.49 11.02 14.3204 11.0903 14.1954 11.2153C14.0703 11.3403 14.0001 11.5099 14.0001 11.6867V12.6667H12.6668V10.28C11.5339 10.095 10.388 10.0014 9.2401 10C6.70864 9.98927 4.20553 10.5331 1.90677 11.5934C1.52843 11.7719 1.20924 12.0553 0.987087 12.4098C0.764933 12.7643 0.649136 13.175 0.653436 13.5934V18H8.0001ZM19.3334 19.3334H9.33344V14H14.0001V14.28C14.0001 14.4569 14.0703 14.6264 14.1954 14.7514C14.3204 14.8765 14.49 14.9467 14.6668 14.9467C14.8436 14.9467 15.0131 14.8765 15.1382 14.7514C15.2632 14.6264 15.3334 14.4569 15.3334 14.28V14H19.3334V19.3334Z" fill="white"/>
</svg>
