<svg width="25" height="24" viewBox="0 0 25 24" fill="none" xmlns="http://www.w3.org/2000/svg">
<path d="M18.9783 2.99662V20.9761H12.9852V17.4801H10.9874V20.9761H4.99428V2.99662H18.9783ZM14.9829 6.99205H16.9806V4.99434H14.9829V6.99205ZM10.9874 6.99205H12.9852V4.99434H10.9874V6.99205ZM6.992 6.99205H8.98972V4.99434H6.992V6.99205ZM14.9829 10.9875H16.9806V8.98977H14.9829V10.9875ZM10.9874 10.9875H12.9852V8.98977H10.9874V10.9875ZM6.992 10.9875H8.98972V8.98977H6.992V10.9875ZM14.9829 14.9829H16.9806V12.9852H14.9829V14.9829ZM10.9874 14.9829H12.9852V12.9852H10.9874V14.9829ZM6.992 14.9829H8.98972V12.9852H6.992V14.9829ZM14.9829 18.9784H16.9806V16.9806H14.9829V18.9784ZM6.992 18.9784H8.98972V16.9806H6.992V18.9784ZM20.976 0.998901H2.99657V22.9738H20.976V0.998901Z" fill="white"/>
<g clip-path="url(#clip0)">
<path d="M21.6473 13.8756V13.3756H21.1473H18.5788H18.0788V13.8756V16.3666H15.5822H15.0822V16.8666V19.4351V19.9351H15.5822H18.0788V22.4261V22.9261H18.5788H21.1473H21.6473V22.4261V19.9351H24.1439H24.6439V19.4351V16.8666V16.3666H24.1439H21.6473V13.8756Z" fill="white" stroke="#407BFF"/>
</g>
<defs>
<clipPath id="clip0">
<rect width="10.274" height="10.274" fill="white" transform="translate(14.7261 13.0139)"/>
</clipPath>
</defs>
</svg>
