<svg width="292" height="930" viewBox="0 0 292 930" fill="none" xmlns="http://www.w3.org/2000/svg">
<mask id="mask0" mask-type="alpha" maskUnits="userSpaceOnUse" x="146" y="0" width="146" height="936">
<rect x="146" width="146" height="936" fill="#C4C4C4"/>
</mask>
<g mask="url(#mask0)">
<g filter="url(#filter0_d)">
<path d="M191.91 837.558C191.91 846.138 189.917 854.024 185.93 861.218C181.857 868.411 176.267 874.131 169.16 878.378C161.967 882.538 153.863 884.618 144.85 884.618C135.837 884.618 127.777 882.538 120.67 878.378C113.477 874.131 107.887 868.411 103.9 861.218C99.9133 854.024 97.92 846.138 97.92 837.558C97.92 828.891 99.9133 821.004 103.9 813.898C107.887 806.704 113.477 801.028 120.67 796.868C127.777 792.708 135.837 790.628 144.85 790.628C153.863 790.628 161.967 792.708 169.16 796.868C176.267 801.028 181.857 806.704 185.93 813.898C189.917 821.091 191.91 828.978 191.91 837.558ZM168.25 837.558C168.25 831.058 166.127 825.944 161.88 822.218C157.633 818.404 151.957 816.498 144.85 816.498C137.57 816.498 131.85 818.404 127.69 822.218C123.443 825.944 121.32 831.058 121.32 837.558C121.32 844.144 123.443 849.301 127.69 853.028C131.85 856.754 137.57 858.618 144.85 858.618C152.043 858.618 157.763 856.754 162.01 853.028C166.17 849.301 168.25 844.144 168.25 837.558ZM128.21 753.534C124.83 751.54 122.143 748.724 120.15 745.084C118.157 741.444 117.16 737.154 117.16 732.214C117.16 726.407 118.677 721.164 121.71 716.484C124.743 711.717 129.077 707.99 134.71 705.304C140.343 702.53 146.93 701.144 154.47 701.144C162.01 701.144 168.64 702.53 174.36 705.304C179.993 707.99 184.327 711.717 187.36 716.484C190.393 721.164 191.91 726.407 191.91 732.214C191.91 737.154 190.913 741.444 188.92 745.084C186.927 748.637 184.24 751.454 180.86 753.534H225.84V779.014H118.07L118.07 753.534H128.21ZM154.47 727.014C149.703 727.014 146.02 728.314 143.42 730.914C140.733 733.427 139.39 736.547 139.39 740.274C139.39 744 140.733 747.164 143.42 749.764C146.107 752.277 149.79 753.534 154.47 753.534C159.237 753.534 162.963 752.277 165.65 749.764C168.337 747.164 169.68 744 169.68 740.274C169.68 736.547 168.337 733.427 165.65 730.914C162.877 728.314 159.15 727.014 154.47 727.014ZM153.69 620.814C155.683 620.814 157.677 620.944 159.67 621.204V669.434C163.657 669.174 166.647 668.091 168.64 666.184C170.547 664.191 171.5 661.678 171.5 658.644C171.5 654.397 169.593 651.364 165.78 649.544V622.374C170.807 623.501 175.313 625.711 179.3 629.004C183.2 632.211 186.277 636.284 188.53 641.224C190.783 646.164 191.91 651.624 191.91 657.604C191.91 664.798 190.393 671.211 187.36 676.844C184.327 682.391 179.993 686.768 174.36 689.974C168.727 693.094 162.097 694.654 154.47 694.654C146.843 694.654 140.257 693.094 134.71 689.974C129.077 686.854 124.743 682.521 121.71 676.974C118.677 671.341 117.16 664.884 117.16 657.604C117.16 650.411 118.633 644.041 121.58 638.494C124.527 632.947 128.773 628.614 134.32 625.494C139.78 622.374 146.237 620.814 153.69 620.814ZM147.32 646.814C144.2 646.814 141.773 647.854 140.04 649.934C138.22 652.014 137.31 654.614 137.31 657.734C137.31 660.854 138.177 663.411 139.91 665.404C141.557 667.398 144.027 668.698 147.32 669.304V646.814ZM117.42 562.517C117.42 554.11 120.237 547.437 125.87 542.497C131.417 537.557 138.957 535.087 148.49 535.087H191V560.567H151.87C147.71 560.567 144.46 561.65 142.12 563.817C139.693 565.983 138.48 568.887 138.48 572.527C138.48 576.34 139.693 579.33 142.12 581.497C144.46 583.663 147.71 584.747 151.87 584.747H191V610.227H118.07V584.747H128.47C125.177 582.493 122.533 579.46 120.54 575.647C118.46 571.833 117.42 567.457 117.42 562.517ZM154.47 525.106C146.93 525.106 140.343 523.762 134.71 521.076C129.077 518.302 124.743 514.532 121.71 509.766C118.677 504.999 117.16 499.712 117.16 493.906C117.16 489.226 118.157 485.066 120.15 481.426C122.057 477.699 124.7 474.796 128.08 472.716H94.8V447.106H191V472.716H180.86C184.24 474.709 186.927 477.526 188.92 481.166C190.913 484.806 191.91 489.096 191.91 494.036C191.91 499.842 190.393 505.129 187.36 509.896C184.327 514.576 179.993 518.302 174.36 521.076C168.64 523.762 162.01 525.106 154.47 525.106ZM154.47 472.586C149.79 472.586 146.107 473.886 143.42 476.486C140.733 478.999 139.39 482.119 139.39 485.846C139.39 489.659 140.733 492.822 143.42 495.336C146.02 497.849 149.703 499.106 154.47 499.106C159.15 499.106 162.877 497.849 165.65 495.336C168.337 492.822 169.68 489.659 169.68 485.846C169.68 482.119 168.337 478.999 165.65 476.486C162.963 473.886 159.237 472.586 154.47 472.586ZM153.69 362.746C155.683 362.746 157.677 362.876 159.67 363.136V411.366C163.657 411.106 166.647 410.023 168.64 408.116C170.547 406.123 171.5 403.61 171.5 400.576C171.5 396.33 169.593 393.296 165.78 391.476V364.306C170.807 365.433 175.313 367.643 179.3 370.936C183.2 374.143 186.277 378.216 188.53 383.156C190.783 388.096 191.91 393.556 191.91 399.536C191.91 406.73 190.393 413.143 187.36 418.776C184.327 424.323 179.993 428.7 174.36 431.906C168.727 435.026 162.097 436.586 154.47 436.586C146.843 436.586 140.257 435.026 134.71 431.906C129.077 428.786 124.743 424.453 121.71 418.906C118.677 413.273 117.16 406.816 117.16 399.536C117.16 392.343 118.633 385.973 121.58 380.426C124.527 374.88 128.773 370.546 134.32 367.426C139.78 364.306 146.237 362.746 153.69 362.746ZM147.32 388.746C144.2 388.746 141.773 389.786 140.04 391.866C138.22 393.946 137.31 396.546 137.31 399.666C137.31 402.786 138.177 405.343 139.91 407.336C141.557 409.33 144.027 410.63 147.32 411.236V388.746ZM191.91 321.089C191.91 327.676 190.827 333.569 188.66 338.769C186.407 343.882 183.373 347.956 179.56 350.989C175.66 353.936 171.283 355.582 166.43 355.929V331.229C168.77 330.882 170.59 329.799 171.89 327.979C173.19 326.159 173.84 323.906 173.84 321.219C173.84 319.139 173.407 317.492 172.54 316.279C171.673 315.066 170.547 314.459 169.16 314.459C167.34 314.459 165.997 315.456 165.13 317.449C164.263 319.442 163.31 322.736 162.27 327.329C161.23 332.529 160.06 336.862 158.76 340.329C157.46 343.796 155.337 346.829 152.39 349.429C149.443 351.942 145.457 353.199 140.43 353.199C136.097 353.199 132.197 352.029 128.73 349.689C125.177 347.349 122.36 343.926 120.28 339.419C118.2 334.826 117.16 329.322 117.16 322.909C117.16 313.376 119.5 305.879 124.18 300.419C128.86 294.959 135.013 291.796 142.64 290.929L142.64 313.939C140.3 314.372 138.523 315.412 137.31 317.059C136.01 318.619 135.36 320.742 135.36 323.429C135.36 325.509 135.75 327.112 136.53 328.239C137.31 329.279 138.393 329.799 139.78 329.799C141.513 329.799 142.857 328.802 143.81 326.809C144.677 324.816 145.587 321.609 146.54 317.189C147.667 311.902 148.923 307.526 150.31 304.059C151.697 300.506 153.95 297.429 157.07 294.829C160.103 292.142 164.263 290.799 169.55 290.799C173.797 290.799 177.61 292.056 180.99 294.569C184.37 296.996 187.057 300.506 189.05 305.099C190.957 309.606 191.91 314.936 191.91 321.089ZM191 232.482L161.1 252.632H191V278.112H94.8V252.632H146.67L118.07 232.482V201.932L154.73 230.662L191 201.412V232.482Z" fill="white"/>
</g>
<mask id="mask1" mask-type="alpha" maskUnits="userSpaceOnUse" x="90" y="42" width="117" height="71">
<rect x="90" y="42" width="116.117" height="70.9219" fill="#C4C4C4"/>
</mask>
<g mask="url(#mask1)">
<rect x="83.0465" y="42" width="127.242" height="8.34376" fill="white"/>
<rect x="196.222" y="118.604" width="75.1602" height="6.88194" transform="rotate(-100 196.222 118.604)" fill="white"/>
<path d="M186.794 77.7704C182.145 78.59 178.011 81.2118 175.3 85.0588C172.589 88.9058 171.523 93.6629 172.338 98.2837C173.153 102.905 175.781 107.01 179.644 109.698C183.507 112.386 188.289 113.436 192.938 112.616L189.866 95.1931L186.794 77.7704Z" fill="#FFC3BD"/>
<ellipse cx="148.406" cy="84.9428" rx="27.8125" ry="27.646" fill="#FF575F"/>
<path fill-rule="evenodd" clip-rule="evenodd" d="M151.957 81.6631L145.082 88.5383L142.35 85.8123L139.618 83.0864L137.833 84.8707L136.049 86.655L140.565 91.1672L145.08 95.6793L153.741 87.0188L162.401 78.3582L160.617 76.573L158.832 74.7881L151.957 81.6631Z" fill="#263238"/>
</g>
</g>
<mask id="mask2" mask-type="alpha" maskUnits="userSpaceOnUse" x="0" y="0" width="158" height="936">
<path d="M0 0H146L158 14.5V157L146 168.5V936H0V0Z" fill="#C4C4C4"/>
</mask>
<g mask="url(#mask2)">
<path d="M191.91 837.558C191.91 846.138 189.917 854.024 185.93 861.218C181.857 868.411 176.267 874.131 169.16 878.378C161.967 882.538 153.863 884.618 144.85 884.618C135.837 884.618 127.777 882.538 120.67 878.378C113.477 874.131 107.887 868.411 103.9 861.218C99.9133 854.024 97.92 846.138 97.92 837.558C97.92 828.891 99.9133 821.004 103.9 813.898C107.887 806.704 113.477 801.028 120.67 796.868C127.777 792.708 135.837 790.628 144.85 790.628C153.863 790.628 161.967 792.708 169.16 796.868C176.267 801.028 181.857 806.704 185.93 813.898C189.917 821.091 191.91 828.978 191.91 837.558ZM168.25 837.558C168.25 831.058 166.127 825.944 161.88 822.218C157.633 818.404 151.957 816.498 144.85 816.498C137.57 816.498 131.85 818.404 127.69 822.218C123.443 825.944 121.32 831.058 121.32 837.558C121.32 844.144 123.443 849.301 127.69 853.028C131.85 856.754 137.57 858.618 144.85 858.618C152.043 858.618 157.763 856.754 162.01 853.028C166.17 849.301 168.25 844.144 168.25 837.558ZM128.21 753.534C124.83 751.54 122.143 748.724 120.15 745.084C118.157 741.444 117.16 737.154 117.16 732.214C117.16 726.407 118.677 721.164 121.71 716.484C124.743 711.717 129.077 707.99 134.71 705.304C140.343 702.53 146.93 701.144 154.47 701.144C162.01 701.144 168.64 702.53 174.36 705.304C179.993 707.99 184.327 711.717 187.36 716.484C190.393 721.164 191.91 726.407 191.91 732.214C191.91 737.154 190.913 741.444 188.92 745.084C186.927 748.637 184.24 751.454 180.86 753.534H225.84V779.014H118.07L118.07 753.534H128.21ZM154.47 727.014C149.703 727.014 146.02 728.314 143.42 730.914C140.733 733.427 139.39 736.547 139.39 740.274C139.39 744 140.733 747.164 143.42 749.764C146.107 752.277 149.79 753.534 154.47 753.534C159.237 753.534 162.963 752.277 165.65 749.764C168.337 747.164 169.68 744 169.68 740.274C169.68 736.547 168.337 733.427 165.65 730.914C162.877 728.314 159.15 727.014 154.47 727.014ZM153.69 620.814C155.683 620.814 157.677 620.944 159.67 621.204V669.434C163.657 669.174 166.647 668.091 168.64 666.184C170.547 664.191 171.5 661.678 171.5 658.644C171.5 654.397 169.593 651.364 165.78 649.544V622.374C170.807 623.501 175.313 625.711 179.3 629.004C183.2 632.211 186.277 636.284 188.53 641.224C190.783 646.164 191.91 651.624 191.91 657.604C191.91 664.798 190.393 671.211 187.36 676.844C184.327 682.391 179.993 686.768 174.36 689.974C168.727 693.094 162.097 694.654 154.47 694.654C146.843 694.654 140.257 693.094 134.71 689.974C129.077 686.854 124.743 682.521 121.71 676.974C118.677 671.341 117.16 664.884 117.16 657.604C117.16 650.411 118.633 644.041 121.58 638.494C124.527 632.947 128.773 628.614 134.32 625.494C139.78 622.374 146.237 620.814 153.69 620.814ZM147.32 646.814C144.2 646.814 141.773 647.854 140.04 649.934C138.22 652.014 137.31 654.614 137.31 657.734C137.31 660.854 138.177 663.411 139.91 665.404C141.557 667.398 144.027 668.698 147.32 669.304V646.814ZM117.42 562.517C117.42 554.11 120.237 547.437 125.87 542.497C131.417 537.557 138.957 535.087 148.49 535.087H191V560.567H151.87C147.71 560.567 144.46 561.65 142.12 563.817C139.693 565.983 138.48 568.887 138.48 572.527C138.48 576.34 139.693 579.33 142.12 581.497C144.46 583.663 147.71 584.747 151.87 584.747H191V610.227H118.07V584.747H128.47C125.177 582.493 122.533 579.46 120.54 575.647C118.46 571.833 117.42 567.457 117.42 562.517ZM154.47 525.106C146.93 525.106 140.343 523.762 134.71 521.076C129.077 518.302 124.743 514.532 121.71 509.766C118.677 504.999 117.16 499.712 117.16 493.906C117.16 489.226 118.157 485.066 120.15 481.426C122.057 477.699 124.7 474.796 128.08 472.716H94.8V447.106H191V472.716H180.86C184.24 474.709 186.927 477.526 188.92 481.166C190.913 484.806 191.91 489.096 191.91 494.036C191.91 499.842 190.393 505.129 187.36 509.896C184.327 514.576 179.993 518.302 174.36 521.076C168.64 523.762 162.01 525.106 154.47 525.106ZM154.47 472.586C149.79 472.586 146.107 473.886 143.42 476.486C140.733 478.999 139.39 482.119 139.39 485.846C139.39 489.659 140.733 492.822 143.42 495.336C146.02 497.849 149.703 499.106 154.47 499.106C159.15 499.106 162.877 497.849 165.65 495.336C168.337 492.822 169.68 489.659 169.68 485.846C169.68 482.119 168.337 478.999 165.65 476.486C162.963 473.886 159.237 472.586 154.47 472.586ZM153.69 362.746C155.683 362.746 157.677 362.876 159.67 363.136V411.366C163.657 411.106 166.647 410.023 168.64 408.116C170.547 406.123 171.5 403.61 171.5 400.576C171.5 396.33 169.593 393.296 165.78 391.476V364.306C170.807 365.433 175.313 367.643 179.3 370.936C183.2 374.143 186.277 378.216 188.53 383.156C190.783 388.096 191.91 393.556 191.91 399.536C191.91 406.73 190.393 413.143 187.36 418.776C184.327 424.323 179.993 428.7 174.36 431.906C168.727 435.026 162.097 436.586 154.47 436.586C146.843 436.586 140.257 435.026 134.71 431.906C129.077 428.786 124.743 424.453 121.71 418.906C118.677 413.273 117.16 406.816 117.16 399.536C117.16 392.343 118.633 385.973 121.58 380.426C124.527 374.88 128.773 370.546 134.32 367.426C139.78 364.306 146.237 362.746 153.69 362.746ZM147.32 388.746C144.2 388.746 141.773 389.786 140.04 391.866C138.22 393.946 137.31 396.546 137.31 399.666C137.31 402.786 138.177 405.343 139.91 407.336C141.557 409.33 144.027 410.63 147.32 411.236V388.746ZM191.91 321.089C191.91 327.676 190.827 333.569 188.66 338.769C186.407 343.882 183.373 347.956 179.56 350.989C175.66 353.936 171.283 355.582 166.43 355.929V331.229C168.77 330.882 170.59 329.799 171.89 327.979C173.19 326.159 173.84 323.906 173.84 321.219C173.84 319.139 173.407 317.492 172.54 316.279C171.673 315.066 170.547 314.459 169.16 314.459C167.34 314.459 165.997 315.456 165.13 317.449C164.263 319.442 163.31 322.736 162.27 327.329C161.23 332.529 160.06 336.862 158.76 340.329C157.46 343.796 155.337 346.829 152.39 349.429C149.443 351.942 145.457 353.199 140.43 353.199C136.097 353.199 132.197 352.029 128.73 349.689C125.177 347.349 122.36 343.926 120.28 339.419C118.2 334.826 117.16 329.322 117.16 322.909C117.16 313.376 119.5 305.879 124.18 300.419C128.86 294.959 135.013 291.796 142.64 290.929L142.64 313.939C140.3 314.372 138.523 315.412 137.31 317.059C136.01 318.619 135.36 320.742 135.36 323.429C135.36 325.509 135.75 327.112 136.53 328.239C137.31 329.279 138.393 329.799 139.78 329.799C141.513 329.799 142.857 328.802 143.81 326.809C144.677 324.816 145.587 321.609 146.54 317.189C147.667 311.902 148.923 307.526 150.31 304.059C151.697 300.506 153.95 297.429 157.07 294.829C160.103 292.142 164.263 290.799 169.55 290.799C173.797 290.799 177.61 292.056 180.99 294.569C184.37 296.996 187.057 300.506 189.05 305.099C190.957 309.606 191.91 314.936 191.91 321.089ZM191 232.482L161.1 252.632H191V278.112H94.8V252.632H146.67L118.07 232.482V201.932L154.73 230.662L191 201.412V232.482Z" fill="#1F2E35"/>
<mask id="mask3" mask-type="alpha" maskUnits="userSpaceOnUse" x="90" y="42" width="117" height="71">
<rect x="90" y="42" width="116.117" height="70.9219" fill="#C4C4C4"/>
</mask>
<g mask="url(#mask3)">
<rect x="83.0465" y="42" width="127.242" height="8.34376" fill="#263238"/>
<rect width="74.5795" height="6.88194" transform="matrix(0.173648 -0.984808 -0.984808 -0.173648 99.7526 118.467)" fill="#263238"/>
<path d="M109.499 77.7704C114.148 78.59 118.282 81.2118 120.993 85.0588C123.704 88.9058 124.77 93.6629 123.955 98.2837C123.14 102.905 120.512 107.01 116.649 109.698C112.786 112.386 108.004 113.436 103.355 112.616L106.427 95.1931L109.499 77.7704Z" fill="#FFC3BD"/>
<ellipse cx="148.406" cy="84.9428" rx="27.8125" ry="27.646" fill="#FF575F"/>
<path fill-rule="evenodd" clip-rule="evenodd" d="M151.957 81.6631L145.082 88.5383L142.35 85.8123L139.618 83.0864L137.833 84.8707L136.049 86.655L140.565 91.1672L145.08 95.6793L153.741 87.0188L162.401 78.3582L160.617 76.573L158.832 74.7881L151.957 81.6631Z" fill="white"/>
</g>
</g>
<defs>
<filter id="filter0_d" x="92.8" y="199.412" width="139.04" height="691.206" filterUnits="userSpaceOnUse" color-interpolation-filters="sRGB">
<feFlood flood-opacity="0" result="BackgroundImageFix"/>
<feColorMatrix in="SourceAlpha" type="matrix" values="0 0 0 0 0 0 0 0 0 0 0 0 0 0 0 0 0 0 127 0"/>
<feOffset dx="2" dy="2"/>
<feGaussianBlur stdDeviation="2"/>
<feColorMatrix type="matrix" values="0 0 0 0 0 0 0 0 0 0 0 0 0 0 0 0 0 0 0.25 0"/>
<feBlend mode="normal" in2="BackgroundImageFix" result="effect1_dropShadow"/>
<feBlend mode="normal" in="SourceGraphic" in2="effect1_dropShadow" result="shape"/>
</filter>
</defs>
</svg>
