<svg width="49" height="50" viewBox="0 0 49 50" fill="none" xmlns="http://www.w3.org/2000/svg">
<g filter="url(#filter0_d)">
<path d="M24.4824 3.3534C13.6147 3.349 4.8125 12.1469 4.8125 23.0057C4.8125 31.5927 10.3188 38.892 17.9873 41.5726C19.02 41.8319 18.8618 41.098 18.8618 40.597V37.1913C12.8984 37.89 12.6567 33.9437 12.2568 33.2845C11.4482 31.9047 9.53662 31.5531 10.1079 30.8939C11.4658 30.1952 12.8501 31.0697 14.4541 33.4384C15.6143 35.1566 17.8774 34.8666 19.0244 34.5809C19.2749 33.5482 19.811 32.6254 20.5493 31.9091C14.3706 30.8016 11.7954 27.0311 11.7954 22.5487C11.7954 20.3734 12.5117 18.3739 13.918 16.7611C13.0215 14.1024 14.0015 11.8261 14.1333 11.4877C16.6865 11.2592 19.3408 13.3158 19.5474 13.4784C20.9976 13.0873 22.6543 12.8807 24.5088 12.8807C26.3721 12.8807 28.0332 13.0961 29.4966 13.4916C29.9932 13.1136 32.4541 11.347 34.8271 11.5624C34.9546 11.9008 35.9126 14.1244 35.0688 16.7479C36.4927 18.3651 37.2178 20.3822 37.2178 22.5619C37.2178 27.0531 34.625 30.828 28.4287 31.9178C28.9594 32.4398 29.3808 33.0622 29.6683 33.7489C29.9558 34.4355 30.1036 35.1725 30.103 35.9169V40.8607C30.1382 41.2562 30.103 41.6473 30.7622 41.6473C38.5449 39.0238 44.1479 31.6718 44.1479 23.0101C44.1479 12.1469 35.3413 3.3534 24.4824 3.3534Z" fill="white"/>
</g>
<defs>
<filter id="filter0_d" x="-2" y="0" width="53" height="53" filterUnits="userSpaceOnUse" color-interpolation-filters="sRGB">
<feFlood flood-opacity="0" result="BackgroundImageFix"/>
<feColorMatrix in="SourceAlpha" type="matrix" values="0 0 0 0 0 0 0 0 0 0 0 0 0 0 0 0 0 0 127 0"/>
<feOffset dy="4"/>
<feGaussianBlur stdDeviation="2"/>
<feColorMatrix type="matrix" values="0 0 0 0 0 0 0 0 0 0 0 0 0 0 0 0 0 0 0.25 0"/>
<feBlend mode="normal" in2="BackgroundImageFix" result="effect1_dropShadow"/>
<feBlend mode="normal" in="SourceGraphic" in2="effect1_dropShadow" result="shape"/>
</filter>
</defs>
</svg>
