<svg width="48" height="51" viewBox="0 0 48 51" fill="none" xmlns="http://www.w3.org/2000/svg">
<g clip-path="url(#clip0)" filter="url(#filter0_d)">
<path d="M43.2177 23.7657C42.6727 22.0958 40.8534 21.2081 39.1747 21.753L35.1845 23.0802L32.5214 15.17L36.5116 13.8429C38.1903 13.2979 39.0692 11.4874 38.5331 9.80868C37.9882 8.13876 36.1688 7.25106 34.4901 7.79599L30.4999 9.12314L29.12 4.99228C28.5751 3.32235 26.7558 2.43466 25.077 2.97958C23.3983 3.5245 22.5194 5.33505 23.0556 7.01376L24.4354 11.1446L16.2265 13.8868L14.8466 9.75595C14.3017 8.08603 12.4823 7.19833 10.8036 7.74325C9.12489 8.28817 8.24599 10.0987 8.78212 11.7774L10.162 15.9083L6.18056 17.2267C4.50184 17.7716 3.62294 19.5821 4.15907 21.2608C4.59852 22.5352 5.83778 23.3702 7.1122 23.4229C7.70985 23.5108 8.16688 23.2823 12.1835 21.9464L14.8466 29.8565L10.8563 31.1837C9.18642 31.7286 8.29872 33.5479 8.83485 35.2179C9.27431 36.4923 10.5136 37.3272 11.788 37.38C12.3856 37.4679 12.8427 37.2393 16.8593 35.9034L18.2391 40.0343C18.7577 41.5196 20.41 42.5831 22.2821 42.047C23.9608 41.502 24.8397 39.6915 24.3036 38.0128L22.9237 33.8819L31.1503 31.1309L32.5302 35.2618C33.0487 36.7472 34.7011 37.8106 36.5731 37.2745C38.2518 36.7296 39.1308 34.919 38.5946 33.2403L37.2147 29.1095L41.205 27.7823C42.8749 27.255 43.7626 25.4356 43.2177 23.7657ZM20.8847 27.9142L18.2216 19.9864L26.4393 17.2354L29.1024 25.1632L20.8847 27.9142Z" fill="white"/>
</g>
<defs>
<filter id="filter0_d" x="0" y="0" width="47.375" height="53" filterUnits="userSpaceOnUse" color-interpolation-filters="sRGB">
<feFlood flood-opacity="0" result="BackgroundImageFix"/>
<feColorMatrix in="SourceAlpha" type="matrix" values="0 0 0 0 0 0 0 0 0 0 0 0 0 0 0 0 0 0 127 0"/>
<feOffset dy="4"/>
<feGaussianBlur stdDeviation="2"/>
<feColorMatrix type="matrix" values="0 0 0 0 0 0 0 0 0 0 0 0 0 0 0 0 0 0 0.25 0"/>
<feBlend mode="normal" in2="BackgroundImageFix" result="effect1_dropShadow"/>
<feBlend mode="normal" in="SourceGraphic" in2="effect1_dropShadow" result="shape"/>
</filter>
<clipPath id="clip0">
<rect width="39.375" height="45" fill="white" transform="translate(4)"/>
</clipPath>
</defs>
</svg>
