<svg width="39" height="27" viewBox="0 0 39 27" fill="none" xmlns="http://www.w3.org/2000/svg">
<path d="M37.4869 4.50564C37.2733 3.71327 36.8559 2.99065 36.2763 2.4097C35.6967 1.82876 34.975 1.40975 34.1831 1.19439C31.2469 0.388139 19.5 0.375014 19.5 0.375014C19.5 0.375014 7.75501 0.361889 4.81688 1.13251C4.02549 1.35779 3.3053 1.78272 2.72544 2.36652C2.14559 2.95031 1.72554 3.67337 1.50563 4.46626C0.731258 7.40251 0.723758 13.4925 0.723758 13.4925C0.723758 13.4925 0.716258 19.6125 1.48501 22.5188C1.91626 24.1256 3.18188 25.395 4.79063 25.8281C7.75688 26.6344 19.4719 26.6475 19.4719 26.6475C19.4719 26.6475 31.2188 26.6606 34.155 25.8919C34.9472 25.6769 35.6695 25.2589 36.2506 24.6791C36.8317 24.0993 37.2514 23.378 37.4681 22.5863C38.2444 19.6519 38.25 13.5638 38.25 13.5638C38.25 13.5638 38.2875 7.44189 37.4869 4.50564ZM15.7425 19.1344L15.7519 7.88439L25.515 13.5188L15.7425 19.1344Z" fill="white"/>
</svg>
