<svg width="20" height="20" viewBox="0 0 20 20" fill="none" xmlns="http://www.w3.org/2000/svg">
<path fill-rule="evenodd" clip-rule="evenodd" d="M19.5999 7.59992C19.6002 8.72453 19.3371 9.83357 18.8316 10.8382C18.3262 11.8428 17.5924 12.715 16.6891 13.385C15.7859 14.0549 14.7382 14.504 13.6301 14.6961C12.5221 14.8883 11.3844 14.8182 10.3083 14.4915L9.9999 14.7999L8.7999 15.9999L7.5999 17.1999H5.1999V19.5999H0.399902V14.7999L5.5083 9.69152C5.20884 8.70154 5.12618 7.65865 5.26595 6.63386C5.40573 5.60906 5.76465 4.6264 6.31829 3.75277C6.87193 2.87915 7.6073 2.13505 8.47433 1.57114C9.34137 1.00723 10.3197 0.63674 11.3428 0.484886C12.3659 0.333032 13.4097 0.40338 14.4031 0.691141C15.3966 0.978903 16.3163 1.47732 17.0999 2.15248C17.8834 2.82763 18.5123 3.66367 18.9437 4.60369C19.3751 5.5437 19.5989 6.56564 19.5999 7.59992ZM12.3999 2.79992C12.0816 2.79992 11.7764 2.92635 11.5514 3.15139C11.3263 3.37644 11.1999 3.68166 11.1999 3.99992C11.1999 4.31818 11.3263 4.6234 11.5514 4.84845C11.7764 5.07349 12.0816 5.19992 12.3999 5.19992C13.0364 5.19992 13.6469 5.45278 14.097 5.90286C14.547 6.35295 14.7999 6.9634 14.7999 7.59992C14.7999 7.91818 14.9263 8.2234 15.1514 8.44845C15.3764 8.67349 15.6816 8.79992 15.9999 8.79992C16.3182 8.79992 16.6234 8.67349 16.8484 8.44845C17.0735 8.2234 17.1999 7.91818 17.1999 7.59992C17.1999 6.32688 16.6942 5.10598 15.794 4.20581C14.8938 3.30563 13.6729 2.79992 12.3999 2.79992Z" fill="white"/>
</svg>
