<svg width="18" height="18" viewBox="0 0 18 18" fill="none" xmlns="http://www.w3.org/2000/svg">
<path fill-rule="evenodd" clip-rule="evenodd" d="M4.625 15.25L4.625 2.75C4.625 2.08696 4.88839 1.45107 5.35723 0.982233C5.82607 0.513393 6.46196 0.25 7.125 0.25H10.875C11.538 0.25 12.1739 0.513393 12.6428 0.982233C13.1116 1.45107 13.375 2.08696 13.375 2.75L13.375 15.25C13.375 15.913 13.1116 16.5489 12.6428 17.0178C12.1739 17.4866 11.538 17.75 10.875 17.75H7.125C6.46196 17.75 5.82607 17.4866 5.35723 17.0178C4.88839 16.5489 4.625 15.913 4.625 15.25ZM5.875 15.25C5.875 15.5815 6.0067 15.8995 6.24112 16.1339C6.47554 16.3683 6.79348 16.5 7.125 16.5H10.875C11.2065 16.5 11.5245 16.3683 11.7589 16.1339C11.9933 15.8995 12.125 15.5815 12.125 15.25L12.125 2.75C12.125 2.41848 11.9933 2.10054 11.7589 1.86612C11.5245 1.6317 11.2065 1.5 10.875 1.5H7.125C6.79348 1.5 6.47554 1.6317 6.24112 1.86612C6.0067 2.10054 5.875 2.41848 5.875 2.75L5.875 15.25ZM1.5 17.75C1.33424 17.75 1.17527 17.6842 1.05806 17.5669C0.940848 17.4497 0.875 17.2908 0.875 17.125L0.875 0.875C0.875 0.70924 0.940848 0.550268 1.05806 0.433058C1.17527 0.315847 1.33424 0.25 1.5 0.25C1.66576 0.25 1.82473 0.315847 1.94194 0.433058C2.05915 0.550268 2.125 0.70924 2.125 0.875L2.125 17.125C2.125 17.2908 2.05915 17.4497 1.94194 17.5669C1.82473 17.6842 1.66576 17.75 1.5 17.75ZM16.5 17.75C16.3342 17.75 16.1753 17.6842 16.0581 17.5669C15.9408 17.4497 15.875 17.2908 15.875 17.125L15.875 0.875C15.875 0.70924 15.9408 0.550268 16.0581 0.433058C16.1753 0.315847 16.3342 0.25 16.5 0.25C16.6658 0.25 16.8247 0.315847 16.9419 0.433058C17.0592 0.550268 17.125 0.70924 17.125 0.875V17.125C17.125 17.2908 17.0592 17.4497 16.9419 17.5669C16.8247 17.6842 16.6658 17.75 16.5 17.75Z" fill="white"/>
</svg>
