<svg width="93" height="103" viewBox="0 0 93 103" fill="none" xmlns="http://www.w3.org/2000/svg">
<g filter="url(#filter0_d)">
<path d="M16.458 13V90.25H42.208V75.2292H50.7913V90.25H76.5413V13H16.458ZM25.0413 21.5833H33.6247V30.1667H25.0413V21.5833ZM42.208 21.5833H50.7913V30.1667H42.208V21.5833ZM59.3747 21.5833H67.958V30.1667H59.3747V21.5833ZM25.0413 38.75H33.6247V47.3333H25.0413V38.75ZM42.208 38.75H50.7913V47.3333H42.208V38.75ZM59.3747 38.75H67.958V47.3333H59.3747V38.75ZM25.0413 55.9167H33.6247V64.5H25.0413V55.9167ZM42.208 55.9167H50.7913V64.5H42.208V55.9167ZM59.3747 55.9167H67.958V64.5H59.3747V55.9167ZM25.0413 73.0833H33.6247V81.6667H25.0413V73.0833ZM59.3747 73.0833H67.958V81.6667H59.3747V73.0833Z" fill="white"/>
<path d="M16.458 12.5H15.958V13V90.25V90.75H16.458H42.208H42.708V90.25V75.7292H50.2913V90.25V90.75H50.7913H76.5413H77.0413V90.25V13V12.5H76.5413H16.458ZM25.5413 22.0833H33.1247V29.6667H25.5413V22.0833ZM42.708 22.0833H50.2913V29.6667H42.708V22.0833ZM59.8747 22.0833H67.458V29.6667H59.8747V22.0833ZM25.5413 39.25H33.1247V46.8333H25.5413V39.25ZM42.708 39.25H50.2913V46.8333H42.708V39.25ZM59.8747 39.25H67.458V46.8333H59.8747V39.25ZM25.5413 56.4167H33.1247V64H25.5413V56.4167ZM42.708 56.4167H50.2913V64H42.708V56.4167ZM59.8747 56.4167H67.458V64H59.8747V56.4167ZM25.5413 73.5833H33.1247V81.1667H25.5413V73.5833ZM59.8747 73.5833H67.458V81.1667H59.8747V73.5833Z" stroke="#263238"/>
</g>
<defs>
<filter id="filter0_d" x="0.458008" y="-3" width="92.0833" height="109.25" filterUnits="userSpaceOnUse" color-interpolation-filters="sRGB">
<feFlood flood-opacity="0" result="BackgroundImageFix"/>
<feColorMatrix in="SourceAlpha" type="matrix" values="0 0 0 0 0 0 0 0 0 0 0 0 0 0 0 0 0 0 127 0"/>
<feOffset/>
<feGaussianBlur stdDeviation="7.5"/>
<feColorMatrix type="matrix" values="0 0 0 0 0 0 0 0 0 0 0 0 0 0 0 0 0 0 0.25 0"/>
<feBlend mode="normal" in2="BackgroundImageFix" result="effect1_dropShadow"/>
<feBlend mode="normal" in="SourceGraphic" in2="effect1_dropShadow" result="shape"/>
</filter>
</defs>
</svg>
