<svg width="8" height="14" viewBox="0 0 8 14" fill="none" xmlns="http://www.w3.org/2000/svg">
<path d="M4 0.607239C1.7904 0.607239 0 2.39044 0 4.59924C0 8.41844 4 13.3992 4 13.3992C4 13.3992 8 8.41764 8 4.59924C8 2.39124 6.2096 0.607239 4 0.607239ZM4 6.80804C3.42713 6.80804 2.87773 6.58047 2.47265 6.17539C2.06757 5.77031 1.84 5.22091 1.84 4.64804C1.84 4.07517 2.06757 3.52577 2.47265 3.12069C2.87773 2.71561 3.42713 2.48804 4 2.48804C4.57287 2.48804 5.12227 2.71561 5.52735 3.12069C5.93243 3.52577 6.16 4.07517 6.16 4.64804C6.16 5.22091 5.93243 5.77031 5.52735 6.17539C5.12227 6.58047 4.57287 6.80804 4 6.80804Z" fill="#263238"/>
</svg>
