<svg width="334" height="286" viewBox="0 0 334 286" fill="none" xmlns="http://www.w3.org/2000/svg">
<path d="M110.53 96.8818C98.7423 136.08 119.311 172.566 133.72 192.464C148.129 212.362 185.974 235.518 226.144 230.679C252.468 227.507 256.792 213.013 261.313 197.86C263.691 189.89 266.123 181.737 271.84 174.954C275.624 170.465 280.368 166.136 285.256 161.675C301.794 146.583 319.97 129.996 308.109 100.687C300.323 81.45 283.883 76.8058 265.354 71.5715C247.309 66.4739 227.283 60.8166 211.34 40.5755C179.027 -0.449638 122.318 57.6839 110.53 96.8818Z" fill="#FF575F"/>
<path d="M62.3287 200.514C83.8606 238.422 152.202 267.505 173.188 260.505C194.173 253.504 190.208 243.498 180.212 237.492C178.581 236.512 176.147 235.363 173.119 233.933C157.593 226.603 126.463 211.905 108.059 174.889C93.458 145.523 98.1854 119.616 101.448 101.738C103.1 92.686 104.376 85.692 102.578 81.349C97.2286 68.4283 87.0548 57.0807 68.4808 80.0286C49.9067 102.977 40.7968 162.606 62.3287 200.514Z" fill="#FF575F"/>
<path fill-rule="evenodd" clip-rule="evenodd" d="M201.125 137.581C200.542 137.71 200.296 138.456 200.489 139.012C200.682 139.569 201.167 139.969 201.631 140.339C202.22 140.81 203.196 140.19 203.229 139.444C203.262 138.698 202.651 138.058 201.967 137.735C201.705 137.611 201.409 137.517 201.125 137.581" fill="white"/>
<path fill-rule="evenodd" clip-rule="evenodd" d="M195.065 138.045C195.33 138.211 195.682 138.091 195.949 137.929C196.263 137.739 196.544 137.496 196.774 137.213C196.335 137.004 195.841 136.791 195.376 136.936C194.911 137.081 194.654 137.786 195.065 138.045L195.065 138.045Z" fill="white"/>
<path fill-rule="evenodd" clip-rule="evenodd" d="M54.814 226.113C54.814 226.113 47.7768 221.76 47.6366 226.113C47.4963 230.467 42.7676 236.197 37.9504 233.065C33.1333 229.934 39.0538 219.8 41.4269 214.2C43.7999 208.6 47.8486 209.667 45.0243 185.667C45.0494 173.27 49.1873 162.734 49.1873 162.734C49.1873 162.734 50.8954 155.872 45.0243 161.667C39.1531 167.462 40.1906 168.075 36.1341 168.075C32.0776 168.075 34.4042 160.099 38.8386 159C43.273 157.902 49.7328 153.73 49.7328 153.73C49.7328 153.73 62.5496 134.187 65.6666 128.484C68.7836 122.782 80.0666 104.903 87.7999 81.6669C88.479 79.7479 92.63 68.6202 87.7999 67.1698C82.1705 65.4794 67.2666 76.5322 68.4427 67.1698C69.6188 57.8075 94.3312 41.1242 96.5999 37.4002C100.927 30.2973 113.372 40.0197 109.702 35.5051C108.899 34.5175 107.917 33.546 106.733 32.6002C106.398 25.2058 114.624 21.4752 124.333 21.4752C132.951 21.4752 145.395 25.5364 143.906 33.9793C143.827 34.4258 148.651 32.4937 154.67 29.1214C163.072 24.4141 171.99 14.9621 173.917 16.3532C173.676 17.3814 194.516 14.4036 194.155 15.3939C192.623 19.597 185.223 30.3202 188.596 37.7829C189.89 40.6456 201.881 42.2002 201.881 42.2002C201.881 42.2002 210.406 45.6234 205.697 48.6645C197.097 54.2185 171.086 62.3177 173.069 65.6024C143.742 51.375 130.15 58.4257 128.771 62.0019C124.01 74.3564 122.383 89.9651 132.893 107.774C139.17 118.168 140.529 119.336 140.529 119.336L144.578 124.717C144.578 124.717 145.611 117.528 148.804 117.528C151.997 117.528 157.327 123.709 152.813 136.467C151.854 140.672 152.78 143.287 155.8 150.171C156.857 154.06 156.421 156.125 156.421 156.125C156.421 156.125 155.861 160.868 158.699 165.372C161.537 169.876 166.898 177.661 162.471 182.982C159.579 186.142 158.043 180.9 158.043 180.9C158.043 180.9 151.976 197.181 150.955 202.508C149.933 207.834 145.219 216.285 144.578 224.036C144.034 218.55 139.409 202.359 134.362 210.52C132.062 220.471 132.893 224.418 132.893 232.028C126.504 221.261 120.823 208.6 110.845 214.2C105.572 217.16 109.064 225.395 109.064 229.934C110.097 234.351 110.98 241.347 110.022 246.974C108.133 233.604 96.9404 229.797 92.7702 233.065C88.5999 236.334 92.7702 251.267 92.7702 254.467C92.7702 257.667 94.4385 264.936 90.1999 272.522C89.7929 261.617 91.3728 236.894 74.1999 236.334C57.027 235.773 69.388 257.421 68.4427 262.713C67.3807 262.486 66.8214 255.516 61.6666 242.183C59.8895 237.586 54.814 226.113 54.814 226.113Z" fill="white"/>
<path fill-rule="evenodd" clip-rule="evenodd" d="M265.88 165.346C265.281 162.988 261.458 163.028 260.082 165.036C258.707 167.044 259.179 169.773 260.046 172.046C260.239 172.55 260.449 173.052 260.659 173.554L260.659 173.555C261.398 175.32 262.14 177.095 262.134 178.988C260.326 178.818 258.61 177.844 257.538 176.381C257.601 178.187 258.062 179.979 258.879 181.592C253.365 180.359 249.99 173.429 252.426 168.341C254.299 164.43 251.104 159.842 247.339 157.681C245.806 156.801 244.155 156.13 242.508 155.46C240.107 154.484 237.714 153.512 235.706 151.901C232.84 149.603 231.124 146.323 229.402 143.029C228.555 141.411 227.707 139.79 226.721 138.28C220.726 129.11 208.787 124.247 198.074 126.611C196.072 127.053 194.06 125.515 193.256 123.633C192.453 121.75 192.561 119.621 192.688 117.579C193.057 111.642 193.679 105.182 197.794 100.878C201.476 97.0277 207.157 95.8309 212.488 95.6922C220.575 95.4819 228.708 97.2851 235.945 100.893C237.722 101.779 239.982 100.914 241.265 99.4005C242.548 97.8869 243.066 95.8844 243.463 93.9418C244.186 90.4009 244.647 86.7624 245.108 83.1269C246.202 74.4928 247.293 65.8754 251.888 58.6209C255.416 53.0512 260.736 48.8253 266.384 45.4126C278.146 38.3057 292.402 34.2942 305.797 37.3912C300.669 39.1185 296.29 42.9538 293.907 47.8039C306.77 43.4631 321.052 43.4321 333.933 47.7171C325.596 51.2715 317.622 56.5118 312.924 64.2496C307.565 73.0747 307.148 83.7797 306.742 94.1985L306.742 94.1991C306.689 95.5556 306.636 96.9074 306.573 98.2494C306.023 109.899 303.857 122.696 294.824 130.095C291.781 132.588 290.699 136.873 291.107 140.781C291.514 144.689 293.188 148.337 294.839 151.904C296.001 154.416 297.245 157.032 299.458 158.698C301.67 160.364 305.161 160.691 307.035 158.653C308.59 156.96 311.614 159.392 311.195 161.65C310.776 163.908 308.588 165.331 306.599 166.485C308.48 166.387 310.458 166.307 312.146 167.142C313.834 167.977 315.06 170.061 314.28 171.773C313.911 172.585 313.178 173.162 312.471 173.708L306.55 178.279L313.104 185.17C313.782 185.883 314.484 186.636 314.747 187.583C315.291 189.542 313.663 191.572 311.733 192.22C309.802 192.868 307.695 192.509 305.691 192.143C307.538 194.572 309.316 198.261 307.061 200.319C305.585 201.667 303.512 201.237 301.408 200.8C299.437 200.391 297.439 199.976 295.878 201.012C296.922 204.571 297.046 208.801 294.595 211.589C292.145 214.376 286.541 214.062 285.551 210.487C282.225 214.303 278.103 217.425 273.525 219.594C271.317 220.641 267.758 220.836 267.332 218.433C267.161 217.47 267.668 216.529 268.158 215.682L274.317 205.009C269.244 209.081 262.945 211.611 256.46 212.182C254.271 212.375 251.282 211.612 251.365 209.42C251.393 208.666 251.827 207.993 252.262 207.375C254.84 203.712 257.994 200.389 261.133 197.079C266.811 191.095 272.446 185.156 274.557 177.339C275.279 174.668 275.461 171.569 273.776 169.373C271.056 165.83 265.567 166.747 261.28 168.016C261.973 166.234 263.985 165.067 265.88 165.346ZM194.571 119.042C194.33 119.445 194.349 119.946 194.375 120.415C194.433 121.465 194.569 122.662 195.426 123.273C196.872 122.296 197.049 119.918 195.764 118.738C195.418 118.42 194.811 118.638 194.571 119.042ZM198.519 122.792C198.99 122.952 199.359 123.379 199.448 123.868C199.468 123.978 199.474 124.093 199.451 124.203C199.416 124.375 199.306 124.531 199.155 124.622C198.858 124.802 198.455 124.709 198.188 124.487C197.92 124.264 197.763 123.94 197.631 123.619C197.578 123.491 197.527 123.356 197.54 123.218C197.578 122.811 198.13 122.66 198.519 122.792Z" fill="white"/>
<path fill-rule="evenodd" clip-rule="evenodd" d="M70.1407 34.5341C46.8367 38.1016 24.7171 49.017 7.72677 65.3336C3.2247 69.6572 -1.2423 75.541 0.422711 81.5516C3.25983 72.2111 10.4374 64.8 18.2102 58.8785C39.6758 42.5253 66.9146 35.0252 93.879 33.5869C100.498 33.2339 108.744 34.2491 111.08 40.4413C112.1 43.1445 111.611 46.2255 110.427 48.861C106.455 57.6959 96.2535 61.3822 87.0515 64.7071C86.7112 64.8301 86.3723 64.9525 86.0351 65.0747C59.468 74.7038 34.4681 90.7993 18.8142 114.291C17.7712 115.856 16.7394 117.819 17.5413 119.52C33.6288 94.7736 58.701 75.9872 86.9971 67.4771C85.4969 97.8288 67.9292 124.726 50.9439 149.944C54.0059 148.785 55.9411 145.826 57.6655 143.047L74.6675 115.645C76.1541 121.22 73.416 126.681 70.7492 131.999L70.7491 132L70.7489 132L70.7488 132L70.7487 132L70.7486 132L70.7485 132.001L70.7484 132.001L70.7483 132.001L70.7481 132.001L70.748 132.002L70.7479 132.002L70.7478 132.002L70.7477 132.002L70.7476 132.003L70.7475 132.003L70.7473 132.003L70.7472 132.003L70.7471 132.003L70.747 132.004L70.7469 132.004L70.7468 132.004L70.7467 132.004C70.1195 133.255 69.4963 134.498 68.9331 135.733C65.0843 144.169 63.8942 153.534 62.7493 162.733C64.0718 162.591 64.6916 161.062 65.0376 159.779L72.9577 130.43C73.3834 132.981 74.5761 135.4 76.3419 137.292C78.079 134.552 78.0892 131.133 78.0989 127.867C78.0995 127.652 78.1002 127.438 78.1013 127.224C78.2229 104.233 87.1122 81.3947 102.573 64.3527C103.229 63.6287 103.899 62.9127 104.569 62.1963L104.57 62.1956C107.172 59.4135 109.781 56.6248 111.667 53.3315C114.038 49.1898 115.122 43.9651 113.114 39.6361C112.802 38.9629 112.418 38.3141 112.035 37.6666C111.253 36.3458 110.475 35.0306 110.315 33.5257C110.028 30.8415 111.881 28.2933 114.217 26.9333C116.552 25.5734 119.303 25.158 121.979 24.7678C126.303 24.1374 130.827 23.5239 134.952 24.9625C139.078 26.4011 142.592 30.6021 141.686 34.8696C141.274 36.8165 140.042 38.4646 138.846 40.0659L138.645 40.3358C123.825 60.229 117.183 86.0126 120.553 110.574C122.264 103.98 122.964 97.1246 122.621 90.321C127.783 101.794 134.203 112.702 141.728 122.79C142.525 119.336 140.493 115.933 138.639 112.91C130.359 99.4021 123.836 83.2228 128.129 67.9774C128.857 65.3896 129.927 62.8261 131.772 60.8684C136.991 55.3316 146.06 56.5477 153.256 59.0355C166.324 63.5528 178.407 70.8849 188.441 80.3852C183.667 71.1251 175.104 64.1354 165.511 60.0421C155.918 55.9487 145.335 54.58 134.903 54.7058L144.514 38.726C145.189 37.6043 145.904 36.4405 147.017 35.75C148.726 34.6904 150.915 34.9973 152.896 35.3407L211.267 45.4528C193.003 35.1498 171.28 33.4715 150.352 32.0225C163.918 26.2839 175.739 16.5036 183.905 4.26101C184.709 3.0557 185.152 0.918778 183.737 0.600067C174.607 13.947 161.814 24.77 147.127 31.5714C146.682 25.3951 140.182 21.4424 134.108 20.1831C128.354 18.9901 122.304 19.2486 116.674 20.9282C112.778 22.0902 109.133 23.9003 105.485 25.7119C102.472 27.208 99.4565 28.7051 96.2969 29.839C90.2183 32.0205 83.782 32.8021 77.3465 33.5835C74.9382 33.8759 72.53 34.1684 70.1407 34.5341ZM143.931 218.201C141.989 226.66 141.645 235.787 144.97 243.8C145.721 226.215 149.417 208.76 155.855 192.388L155.955 192.134L155.955 192.133L155.956 192.133C156.566 190.583 157.184 189.017 157.376 187.364C157.515 186.172 157.044 184.566 155.849 184.601C154.798 184.631 154.323 185.906 154.08 186.933C153.553 189.16 152.858 191.343 152.119 193.508C151.279 195.968 150.382 198.411 149.485 200.853L149.485 200.854L149.485 200.854L149.485 200.854L149.485 200.855L149.484 200.855L149.484 200.856L149.484 200.856L149.484 200.857L149.484 200.857L149.484 200.857L149.484 200.858L149.484 200.858L149.483 200.859L149.483 200.859L149.483 200.859L149.483 200.86L149.483 200.86L149.483 200.861L149.483 200.861L149.482 200.861L149.482 200.862L149.482 200.862L149.482 200.863L149.482 200.863C147.386 206.572 145.29 212.279 143.931 218.201ZM66.4974 285.394L65.6516 285.4C67.6833 268.464 65.2736 250.75 57.0269 235.773C56.7865 235.336 56.5408 234.901 56.295 234.466L56.2946 234.465C55.1215 232.386 53.944 230.3 53.3077 228.013C52.5379 225.245 52.6829 222.05 54.4846 219.8C58.5777 226.592 62.6921 233.427 65.5357 240.817C69.2054 250.353 70.6722 260.648 70.4435 270.849C70.3289 275.958 69.677 281.367 66.4974 285.394ZM87.0363 241.924C86.472 240.153 85.8281 238.409 85.1843 236.665L84.3409 234.38L82.7333 230.025C85.3008 229.541 87.9267 231.029 89.4933 233.11C91.0598 235.191 91.7665 237.775 92.3579 240.308C93.8927 246.881 94.8773 253.652 94.299 260.375C93.7208 267.098 91.4908 273.806 87.161 279C90.893 267.011 90.8489 253.888 87.0363 241.924ZM111.24 244.1C111.082 245.488 110.836 246.925 110.024 248.067C109.543 231.219 104.3 214.53 95.0481 200.393C94.8195 200.044 94.5881 199.695 94.3564 199.346C92.8086 197.014 91.2481 194.662 90.4426 191.998C90.2363 191.316 90.0834 190.573 90.3184 189.9C90.5533 189.227 91.3094 188.688 91.9874 188.923C92.4476 189.082 92.7335 189.527 92.9839 189.942C98.005 198.265 103.049 206.634 106.642 215.656C110.235 224.677 112.341 234.462 111.24 244.1ZM139.708 147.79C137.695 154.639 134.511 161.141 130.334 166.929C128.143 169.965 125.411 172.975 121.752 173.769C121.832 179.321 123.371 184.846 126.173 189.639C127.225 185.082 130.099 181.254 132.931 177.482L132.932 177.482L132.933 177.481L132.934 177.479L132.935 177.478L132.936 177.476L132.937 177.475L132.938 177.473L132.939 177.472L132.94 177.47L132.941 177.469L132.943 177.467L132.944 177.466L132.945 177.465C133.421 176.83 133.896 176.197 134.361 175.563C139.69 168.29 143.955 160.239 146.98 151.745C147.396 150.576 148.731 149.163 149.547 150.096C149.938 150.543 149.792 151.228 149.62 151.797C145.411 165.635 138.48 178.639 129.338 189.845C128.328 191.084 129.01 192.92 129.727 194.35L134.888 204.65C137.329 198.628 141.223 193.327 145.076 188.096L152.98 177.368C154.321 178.752 153.2 181.026 152.056 182.576C144.116 193.337 135.914 204.772 134.384 218.06C133.838 222.799 134.175 227.568 134.512 232.338C134.65 234.282 134.787 236.225 134.865 238.167C135.133 244.875 134.597 251.91 131.146 257.667L130.227 216.032C130.139 212.064 130.04 208.026 128.79 204.259C127.752 201.13 125.973 198.343 124.191 195.55C123.261 194.092 122.33 192.633 121.502 191.123C114.489 178.319 115.334 162.796 116.822 148.271C117.115 145.416 117.489 142.399 119.255 140.137C119.748 139.505 120.703 138.935 121.277 139.495C121.621 139.831 121.589 140.384 121.532 140.861L118.973 162.522C121.368 159.07 122.763 154.932 122.947 150.734C123.403 151.208 123.771 151.766 124.027 152.371C126.28 146.892 131.503 142.744 137.348 141.793C143.194 140.842 149.462 143.12 153.334 147.604L152.242 144.481C152.129 144.156 152.015 143.798 152.137 143.477C152.518 142.472 154.037 143.317 154.571 144.248C156.204 147.097 157.172 150.323 157.378 153.6C157.447 154.702 157.392 155.917 156.656 156.739C155.921 157.562 154.288 157.563 153.918 156.523C152.66 152.994 150.749 149.7 148.31 146.857C146.546 144.799 143.451 142.902 141.348 144.612C140.421 145.367 140.06 146.595 139.722 147.744L139.708 147.79ZM138.525 143.838C132.681 144.168 127.69 148.617 125.121 153.88C122.552 159.143 121.984 165.134 121.651 170.981C121.635 171.269 121.631 171.592 121.831 171.8C122.234 172.219 122.914 171.758 123.295 171.318C126.776 167.286 130.273 163.234 133.09 158.713C135.907 154.192 138.038 149.143 138.525 143.838ZM50.9954 159C48.4134 160.143 47.3019 163.088 46.5849 165.766C43.1441 178.619 42.8865 192.274 45.8401 205.242C45.8713 205.379 45.9041 205.519 45.9806 205.638C46.3282 206.179 47.211 205.897 47.6639 205.436C49.2551 203.818 48.9195 201.235 48.5641 199.019C46.565 186.552 47.3951 173.661 50.9775 161.538C51.2254 160.699 51.4716 159.739 50.9954 159ZM63.5353 191.148C63.5878 188.535 64.646 185.956 66.4405 184.067C68.4235 194.509 71.3635 204.905 76.7262 214.065C77.3051 215.054 75.9755 216.273 74.8591 216.037C73.7428 215.802 72.9993 214.765 72.3907 213.795C69.1293 208.593 66.5235 202.975 64.6552 197.119C64.0369 195.182 63.4944 193.183 63.5353 191.148ZM197.319 5.15552C197.157 4.64734 196.619 4.21581 196.102 4.36229C195.637 4.49411 195.405 4.9967 195.231 5.44407C192.099 13.4837 189.01 21.5394 185.964 29.6108C185.561 30.6778 185.416 32.2853 186.529 32.5664C187.419 32.7912 188.126 31.844 188.538 31.03C192.435 23.3276 195.37 15.1466 197.253 6.73363C197.369 6.21334 197.481 5.6637 197.319 5.15552ZM66.8801 38.6219C67.1956 38.4341 67.7415 38.3612 67.8001 38.7273C66.666 39.3744 65.7622 40.3372 64.8578 41.3006C63.9889 42.2263 63.1194 43.1525 62.0445 43.8C61.7881 43.5537 62.0241 43.1268 62.2605 42.8607C63.6559 41.2893 65.0815 39.6927 66.8801 38.6219ZM82.7333 36.9033C82.3149 36.7475 81.9007 37.1204 81.6017 37.4602L79.3537 40.0145C79.0686 40.3384 78.8142 40.9222 79.1855 41.1335C80.6916 40.0662 81.9259 38.5944 82.7333 36.9033ZM69.9334 41.0536C71.49 40.521 72.8191 39.4276 73.5834 38.0507C74.0769 37.1616 75.3139 36.9519 76.3805 36.8716C76.5415 36.8595 76.7343 36.8613 76.825 36.9865C76.9768 37.1958 76.683 37.4306 76.4485 37.5564C75.6192 38.0014 75.0211 38.7212 74.4293 39.4335L74.4292 39.4337L74.429 39.4339L74.4289 39.434C74.3114 39.5755 74.1941 39.7167 74.0752 39.8554C73.3581 40.6923 72.4623 41.5099 71.3265 41.6524C70.7766 41.7214 70.1094 41.5462 69.9334 41.0536ZM75.2684 41.2354C75.2496 41.4367 75.3864 41.6664 75.5844 41.6668L79.2094 38.2332C79.4466 38.0085 79.6801 37.5929 79.4175 37.4001C77.9305 38.2304 76.6045 39.3599 75.5379 40.7049C75.4133 40.8621 75.2873 41.0341 75.2684 41.2354ZM80.8804 159.576C81.2034 160.031 81.5293 160.492 81.7394 161.009C81.9094 161.427 81.9995 161.873 82.0887 162.316L83.0501 167.089C83.1935 167.801 83.3375 168.531 83.2281 169.249C83.1016 170.079 82.3498 170.958 81.5594 170.682C81.0107 170.49 80.7713 169.859 80.6014 169.302C79.4648 165.569 78.4203 161.808 77.4695 158.024C77.4235 157.841 77.3775 157.651 77.4119 157.466C77.5053 156.962 78.1679 156.748 78.6449 156.932C79.1219 157.116 79.4456 157.556 79.7422 157.973L80.8804 159.576ZM68.0386 40.1601C67.3446 40.7356 66.6864 41.3576 66.0694 42.021C65.7413 42.3737 65.4592 43.0328 65.8742 43.2668C66.9906 42.4004 67.999 41.3843 68.8667 40.2517C68.6063 40.1078 68.269 39.969 68.0386 40.1601ZM88.2224 36.5941C88.4918 36.3585 88.9919 36.1866 89.1332 36.516C88.2704 37.4741 87.4627 38.4821 86.7153 39.5333C86.3487 39.4102 86.4445 38.8616 86.6378 38.5257C87.0552 37.8002 87.5931 37.1446 88.2224 36.5941ZM69.9904 39.5334L72.0667 38.3366C71.697 37.9185 71.0245 37.8085 70.5411 38.0872C70.0577 38.3658 69.8149 39.0032 69.9904 39.5334ZM59.5298 40.9921C59.2869 41.1247 59.0008 41.1661 58.7333 41.1073C58.7279 40.3216 59.7341 39.7738 60.3333 40.2363C60.1176 40.5399 59.8396 40.7934 59.5242 40.9743L59.5298 40.9921ZM92.5411 37.1571C92.3532 37.3925 92.2065 37.7954 92.4991 37.9119C92.6846 37.9857 92.8859 37.8552 93.0377 37.7331L94.7015 36.3947C94.8764 36.254 95.0688 36.0505 94.9757 35.8554C94.0146 35.575 93.1352 36.413 92.5411 37.1571ZM98.0171 35.5997C97.8632 35.858 97.6945 36.1301 97.4155 36.267C97.1364 36.4039 96.7172 36.3283 96.6201 36.0467C96.5554 35.8591 96.6552 35.651 96.8039 35.5119C97.1743 35.1653 97.8589 35.1899 98.2001 35.5621L98.0171 35.5997ZM51.2678 46.5653C51.2497 46.7985 51.4631 47.0569 51.6872 46.9891C51.7969 46.956 51.8731 46.8592 51.942 46.7677C52.2507 46.3578 52.5383 45.7179 52.1353 45.4001C51.9571 45.5868 51.7811 45.7756 51.6072 45.9664C51.4496 46.1394 51.2858 46.332 51.2678 46.5653ZM85.4965 36.1253C85.7794 35.8299 86.3757 35.6187 86.4667 36.0265C85.5952 37.2995 84.5968 38.4769 83.4933 39.5334C83.0959 39.378 83.2896 38.747 83.5542 38.3992C84.1597 37.6033 84.8085 36.8437 85.4965 36.1253ZM54.2246 44.3077C54.5135 44.4108 54.9285 44.1851 54.8104 43.9656L54.8039 43.9429C55.0901 43.7799 55.0569 43.4014 54.7445 43.2667C54.4433 43.3485 54.1462 43.4807 54.0037 43.6922C53.8611 43.9037 53.9357 44.2045 54.2246 44.3077ZM91.1343 36.3578C91.3768 36.4805 91.2421 36.8746 91.0774 37.1017C90.5803 37.787 89.9384 38.5438 89.1332 38.4603C89.4745 37.6487 90.0351 36.9452 90.7291 36.4576C90.8505 36.3723 91.0031 36.2913 91.1343 36.3578ZM182.758 43.2355C183.08 43.3579 183.556 43.0983 183.407 42.8589L183.533 42.8264L183.528 42.2001C183.165 42.2278 182.79 42.3309 182.587 42.5487C182.384 42.7666 182.435 43.113 182.758 43.2355ZM200.313 112.911C199.767 111.847 200.16 110.396 201.168 109.754C202.176 109.112 203.655 109.37 204.387 110.315C205.119 111.26 204.999 112.758 204.126 113.575C203.254 114.392 201.753 114.411 200.86 113.616C200.636 113.418 200.45 113.177 200.313 112.911ZM202.58 111.623C202.428 111.942 202.724 112.374 203.076 112.347C203.428 112.319 203.654 111.847 203.454 111.555C203.254 111.263 202.733 111.304 202.58 111.623ZM265.88 165.346C263.985 165.067 261.973 166.234 261.28 168.016C265.567 166.747 271.056 165.83 273.776 169.373C275.461 171.569 275.279 174.668 274.557 177.339C272.446 185.156 266.811 191.095 261.133 197.079C257.994 200.389 254.841 203.712 252.262 207.375C251.827 207.993 251.393 208.666 251.365 209.42C251.282 211.612 254.271 212.375 256.46 212.182C262.945 211.611 269.244 209.081 274.317 205.009L268.158 215.682C267.668 216.529 267.161 217.47 267.332 218.433C267.758 220.836 271.317 220.641 273.525 219.594C278.103 217.425 282.225 214.303 285.551 210.487C286.541 214.062 292.145 214.376 294.595 211.589C297.046 208.801 296.922 204.571 295.878 201.012C297.439 199.976 299.437 200.391 301.408 200.8C303.512 201.237 305.585 201.667 307.061 200.319C309.316 198.261 307.538 194.572 305.691 192.143C307.695 192.509 309.802 192.868 311.733 192.22C313.663 191.572 315.291 189.542 314.747 187.583C314.484 186.636 313.782 185.883 313.104 185.17L306.55 178.279L312.471 173.708C313.178 173.162 313.911 172.585 314.28 171.773C315.06 170.061 313.834 167.977 312.146 167.142C310.458 166.307 308.48 166.387 306.599 166.485C308.588 165.331 310.776 163.908 311.195 161.65C311.614 159.392 308.59 156.96 307.035 158.653C305.161 160.691 301.67 160.364 299.458 158.698C297.245 157.031 296.001 154.416 294.839 151.904C293.188 148.337 291.514 144.689 291.107 140.781C290.699 136.873 291.781 132.588 294.824 130.095C303.857 122.696 306.023 109.899 306.573 98.2494C306.636 96.9071 306.689 95.5551 306.742 94.1983C307.148 83.7796 307.565 73.0747 312.924 64.2496C317.622 56.5118 325.596 51.2715 333.933 47.7171C321.052 43.4321 306.77 43.4631 293.907 47.8039C296.29 42.9538 300.669 39.1185 305.797 37.3912C292.403 34.2942 278.146 38.3057 266.384 45.4126C260.736 48.8253 255.416 53.0512 251.888 58.6209C247.293 65.8754 246.202 74.4928 245.108 83.1269C244.647 86.7624 244.186 90.4009 243.463 93.9417C243.066 95.8844 242.548 97.8869 241.265 99.4005C239.982 100.914 237.722 101.779 235.945 100.893C228.708 97.285 220.575 95.4819 212.488 95.6922C207.157 95.8309 201.476 97.0277 197.794 100.878C193.679 105.182 193.057 111.642 192.688 117.579C192.562 119.621 192.453 121.75 193.256 123.633C194.06 125.515 196.072 127.053 198.074 126.611C208.787 124.247 220.726 129.11 226.721 138.28C227.707 139.79 228.555 141.411 229.402 143.029C231.124 146.323 232.84 149.603 235.706 151.901C237.714 153.512 240.107 154.484 242.508 155.46C244.155 156.13 245.806 156.801 247.339 157.681C251.104 159.842 254.299 164.43 252.426 168.341C249.99 173.429 253.365 180.359 258.879 181.592C258.062 179.979 257.601 178.187 257.538 176.381C258.61 177.844 260.326 178.818 262.134 178.988C262.14 177.095 261.398 175.32 260.659 173.555C260.449 173.052 260.239 172.55 260.047 172.046C259.179 169.773 258.707 167.044 260.083 165.036C261.458 163.028 265.281 162.988 265.88 165.346ZM215.521 98.7106C222.292 98.7515 229.044 100.614 234.874 104.049C231.761 105.799 230.513 110.207 232.248 113.324C234.315 108.777 239.036 106.6 243.737 104.431C245.384 103.671 247.029 102.912 248.556 102.053C258.03 96.724 263.452 86.9093 268.867 77.1064C274.372 67.1408 279.87 57.1874 289.612 51.971C294.979 49.0971 301.124 48.0152 307.193 47.4998C314.211 46.9039 321.349 47.0194 328.2 48.65C317.388 52.8225 308.795 62.3285 305.747 73.4897C304.064 79.6493 304.01 86.0613 303.956 92.4812C303.908 98.2561 303.859 104.037 302.625 109.647C300.177 120.773 292.89 130.75 283.026 136.482C284.77 137.588 287.055 137.792 288.969 137.014C288.465 143.171 291.058 148.964 293.622 154.693C294.273 156.148 294.922 157.599 295.519 159.051C298.463 166.219 299.86 175.326 294.574 180.999L298.238 179.853C299.351 185.976 301.622 191.888 304.898 197.183C303.504 199.28 300.029 198.87 298.351 196.992C296.672 195.113 296.345 192.415 296.251 189.9C296.242 189.656 296.234 189.412 296.226 189.166C296.152 186.878 296.076 184.533 295.017 182.521L292.757 207.243C292.631 208.624 292.341 210.249 291.081 210.832C289.62 211.508 287.886 210.122 287.559 208.549C287.243 207.034 287.798 205.497 288.326 204.035L288.387 203.867C289.952 199.524 291.049 195.013 291.654 190.438C291.833 189.082 291.191 187.056 289.911 187.542C288.524 190.565 287.55 193.749 286.576 196.934C285.729 199.701 284.882 202.469 283.764 205.134C281.359 210.866 277.238 216.409 271.252 218.119C276.844 203.929 282.659 189.379 293.05 178.2C288.156 181.209 284.72 186.052 281.61 190.876C281.306 191.347 281.003 191.82 280.7 192.294C277.9 196.67 275.069 201.094 271.116 204.444C266.734 208.157 260.579 210.363 255.146 208.489C262.997 202.037 269.521 193.983 274.198 184.97C276.162 181.185 277.84 176.964 277.152 172.756C276.218 167.04 271.127 162.846 265.78 160.595C263.022 159.434 260.13 158.644 257.237 157.854C254.524 157.114 251.81 156.373 249.205 155.324C243.092 152.864 237.678 148.701 233.735 143.429C232.577 141.88 231.539 140.233 230.501 138.588C228.586 135.552 226.676 132.522 224.024 130.128C220.095 126.582 214.922 124.785 209.854 123.246C205.52 121.931 200.728 120.425 198.444 116.522C195.917 112.205 197.692 106.31 201.473 103.031C205.255 99.7523 210.512 98.6804 215.521 98.7106ZM261.358 52.3162C271.635 44.0705 284.61 39.2299 297.787 38.7247C295.821 39.1392 294.431 40.8848 293.471 42.6467C293.238 43.0749 293.018 43.5137 292.798 43.9527C292.111 45.3203 291.423 46.6906 290.337 47.7534C289.248 48.8192 287.853 49.482 286.467 50.1404C286.165 50.2837 285.864 50.4267 285.567 50.5737C279.592 53.5256 274.701 58.3576 270.862 63.7972C267.023 69.2369 264.165 75.2963 261.478 81.3857C261.389 81.5891 261.299 81.7927 261.21 81.9963C259.701 85.4234 258.181 88.8761 255.962 91.8895C253.612 95.0819 250.356 97.7867 246.483 98.6552C247.844 87.4045 249.984 76.2479 252.883 65.2912C253.409 63.3042 253.966 61.3062 254.922 59.4855C256.424 56.6224 258.834 54.3411 261.358 52.3162ZM304.099 189.564C303.806 189.35 303.661 188.992 303.53 188.653L300.324 180.332C299.688 178.682 299.052 176.827 299.743 175.199C299.958 174.693 300.663 174.218 300.985 174.664C304.428 179.439 308.351 183.869 312.676 187.867C312.949 188.119 312.832 188.606 312.542 188.837C312.251 189.069 311.859 189.115 311.489 189.152L305.448 189.757C304.985 189.804 304.475 189.838 304.099 189.564ZM256.622 166.46C256.083 165.989 255.336 166.769 255.12 167.45C254.267 170.147 254.77 173.107 255.786 175.747L255.805 175.798C256.281 177.033 256.834 178.471 256.126 179.583C255.365 179.121 254.907 178.297 254.549 177.483C253.123 174.24 252.783 170.532 253.595 167.085C253.933 165.647 254.64 164.081 256.052 163.641C256.317 163.558 256.362 163.17 256.202 162.943C256.049 162.726 255.787 162.62 255.538 162.519L255.508 162.507C253.931 161.867 252.524 160.816 251.464 159.488C251.354 159.351 251.242 159.184 251.285 159.014C251.365 158.694 251.83 158.732 252.14 158.844L260.788 161.965C260.522 162.45 259.991 162.639 259.449 162.832C259.102 162.956 258.75 163.081 258.461 163.287C257.313 164.104 257.491 165.826 257.793 167.201L259.789 176.307C256.762 174.174 255.404 169.954 256.622 166.46ZM310.507 170.533C310.934 170.645 311.379 170.766 311.706 171.063C310.527 171.987 309.283 172.831 307.988 173.586C306.824 174.264 305.482 174.889 304.173 174.567C303.253 174.341 302.495 173.663 301.978 172.871C301.461 172.078 301.153 171.171 300.858 170.272C300.717 169.84 300.58 169.352 300.787 168.948C301.145 168.251 302.158 168.346 302.918 168.545L310.507 170.533ZM305.179 164.428C304.759 164.786 304.31 165.15 303.768 165.26C303.123 165.392 302.463 165.141 301.875 164.843C301.191 164.496 300.543 164.078 299.945 163.598C299.72 163.417 299.482 163.109 299.651 162.874C299.739 162.751 299.904 162.716 300.054 162.691C302.469 162.287 304.938 162.2 307.376 162.432C306.664 163.119 305.931 163.785 305.179 164.428ZM194.571 119.042C194.811 118.638 195.418 118.42 195.764 118.738C197.049 119.918 196.872 122.296 195.426 123.273C194.569 122.662 194.433 121.465 194.375 120.415C194.349 119.946 194.33 119.445 194.571 119.042ZM199.448 123.868C199.468 123.978 199.474 124.093 199.451 124.203C199.416 124.375 199.306 124.531 199.155 124.622C198.858 124.802 198.455 124.709 198.188 124.487C197.921 124.264 197.763 123.94 197.631 123.619C197.578 123.491 197.527 123.356 197.54 123.218C197.578 122.811 198.13 122.66 198.519 122.792C198.99 122.952 199.359 123.379 199.448 123.868Z" fill="#263238"/>
<path fill-rule="evenodd" clip-rule="evenodd" d="M124.333 121.175C124.344 119.504 124.107 117.844 123.87 116.191C123.746 115.322 123.551 114.339 122.81 113.885C122.034 113.408 120.982 113.768 120.348 114.426C119.824 114.969 119.506 115.668 119.19 116.362L119.19 116.363C119.124 116.509 119.057 116.655 118.989 116.8C116.986 121.037 113.214 124.085 109.565 126.982C107.488 128.63 106.397 131.467 106.825 134.106C107.253 136.746 109.181 139.079 111.669 139.967C113.116 140.483 114.803 140.506 116.113 139.697C117.172 139.043 117.868 137.938 118.519 136.866C121.445 132.046 124.295 126.835 124.333 121.175ZM119.291 129.514C118.493 133.154 115.739 136.288 112.265 137.51C112.008 137.601 111.726 137.682 111.467 137.596C110.95 137.424 110.841 136.74 110.845 136.189C110.893 129.721 114.122 123.357 119.284 119.559C119.512 119.391 119.842 119.231 120.049 119.424C120.188 119.554 120.184 119.774 120.169 119.965L119.671 126.444C119.591 127.473 119.512 128.506 119.291 129.514ZM77.9449 203.526C76.6152 202.589 75.9013 201.018 75.3984 199.477C72.8935 191.804 74.3787 182.96 79.2551 176.51C80.483 174.886 82.5627 173.273 84.3768 174.21C85.5128 174.796 85.9778 176.147 86.2944 177.379C87.578 182.374 88.1053 187.546 88.0642 192.701C88.0399 195.753 87.7574 198.982 85.9788 201.471C84.2001 203.961 80.4515 205.292 77.9449 203.526ZM81.4482 200.94C82.9389 201.068 83.9389 199.473 84.443 198.074C86.8019 191.524 86.3951 184.039 83.34 177.78C83.102 177.292 82.798 176.768 82.2772 176.607C81.3924 176.333 80.6223 177.251 80.1931 178.067C76.9434 184.245 76.4839 191.807 78.9622 198.329C79.4126 199.514 80.1778 200.831 81.4482 200.94ZM37.4187 235.336C34.7646 233.44 34.4068 229.584 34.9498 226.347C35.8221 221.145 38.3971 216.258 42.144 212.584C44.0475 210.717 46.3351 209.118 48.9461 208.644C49.2196 208.594 49.5166 208.561 49.7624 208.692C50.0897 208.866 50.2159 209.267 50.3058 209.63C51.7533 215.471 51.5611 221.717 49.7573 227.456C48.8966 230.195 47.5981 232.92 45.3543 234.685C43.1105 236.451 39.7409 236.995 37.4187 235.336ZM42.3192 232.835C42.9361 232.529 43.3829 231.964 43.7769 231.395C47.1517 226.522 48.0846 220.248 47.4511 214.336C47.3823 213.693 47.2797 213.014 46.8646 212.522C46.4495 212.03 45.6132 211.849 45.1781 212.323C41.5716 216.248 39.1091 221.233 38.1729 226.505C37.8974 228.056 37.767 229.728 38.4562 231.142C39.1454 232.555 40.9192 233.53 42.3192 232.835ZM79.4637 139.068C82.6047 140.081 85.7604 141.162 88.5608 142.901C91.3613 144.64 93.8122 147.112 94.9319 150.198C96.0517 153.285 95.6417 157.02 93.4101 159.438C91.1785 161.857 87.0395 162.489 84.4729 160.425C83.6752 159.783 83.0661 158.943 82.4838 158.104C80.6809 155.503 79.0372 152.794 77.5651 149.995C76.2027 147.406 74.9563 144.558 75.3352 141.661C75.4939 140.448 76.1018 139.119 77.2916 138.804C78.0068 138.615 78.7597 138.841 79.4637 139.068ZM79.1235 143.426C79.2347 148.092 81.2812 152.684 84.684 155.902C85.8025 156.96 87.1265 157.902 88.6536 158.131C90.1807 158.359 91.9259 157.687 92.5313 156.276C93.0905 154.972 92.5729 153.474 91.9477 152.2C90.1741 148.586 87.5085 145.409 84.2503 143.025C83.1691 142.233 81.9368 141.503 80.594 141.527C80.2506 141.533 79.8916 141.597 79.6231 141.81C79.1625 142.175 79.1096 142.841 79.1235 143.426ZM53.5889 187.225C55.1012 189.006 57.7127 189.913 59.9064 189.099C62.6684 188.074 63.9214 184.919 64.5692 182.054C65.6663 177.202 65.9441 172.167 65.3874 167.224C65.2948 166.402 64.3686 165.878 63.5405 165.938C62.7125 165.998 61.9813 166.48 61.316 166.975C58.6434 168.963 56.3281 171.427 54.5124 174.215C53.2379 176.171 52.195 178.331 51.8868 180.643C51.5786 182.956 52.0766 185.444 53.5889 187.225ZM61.603 181.23C61.1208 182.428 60.2843 183.447 59.4329 184.42C58.5198 185.464 57.3161 186.574 55.9486 186.328C54.7956 186.121 54.0124 184.951 53.8866 183.79C53.7609 182.63 54.1498 181.479 54.5723 180.39C56.3197 175.887 58.7677 171.617 62.0598 168.074L62.1841 176.299C62.2093 177.965 62.2254 179.683 61.603 181.23ZM164.171 183.918C163.127 184.991 161.673 185.992 160.238 185.566C159.176 185.251 158.486 184.246 157.943 183.279C154.492 177.131 153.566 169.376 156.44 162.936C156.789 162.154 157.303 161.308 158.146 161.157C159.369 160.939 160.248 162.272 160.756 163.407C162.439 167.169 164.003 170.984 165.443 174.845C166.116 176.649 166.771 178.593 166.315 180.463C165.989 181.796 165.127 182.935 164.171 183.918ZM158.44 167.563C158.044 167.811 158.025 168.371 158.051 168.838L158.445 175.907C158.558 177.937 158.812 180.241 160.449 181.445C160.78 181.689 161.203 181.877 161.595 181.754C162.176 181.571 162.356 180.847 162.408 180.24C162.801 175.716 161.324 171.068 158.44 167.563ZM89.4696 229.839C90.234 230.178 91.0387 230.524 91.872 230.459C92.7683 230.389 93.5629 229.851 94.2182 229.233C95.787 227.754 96.8251 225.592 96.5578 223.448C96.3413 221.711 95.2937 220.151 93.9319 219.057C92.5701 217.964 90.9136 217.298 89.2298 216.844C86.4157 216.084 83.4543 215.878 80.5627 216.241C79.5408 216.369 78.4632 216.6 77.728 217.324C76.8299 218.209 76.6744 219.66 77.0747 220.858C77.475 222.055 78.3405 223.038 79.2698 223.889C82.1876 226.563 85.856 228.236 89.4696 229.839ZM94.7313 225.121C94.7478 225.863 94.4638 226.635 93.8772 227.085C93.2438 227.572 92.3819 227.616 91.5866 227.557C87.2592 227.233 83.2481 224.205 81.7367 220.122C81.4984 219.478 81.9526 218.741 82.5666 218.438C83.1806 218.135 83.8992 218.16 84.5809 218.217C86.4138 218.372 88.2492 218.723 89.925 219.485C91.6007 220.246 93.1149 221.441 94.0532 223.029C94.43 223.667 94.7147 224.38 94.7313 225.121ZM41.3938 167.693C40.1439 168.845 38.5373 169.833 36.842 169.643C34.7398 169.408 33.1838 167.296 33.1347 165.196C33.0855 163.096 34.2699 161.118 35.8425 159.713C37.4151 158.308 39.3531 157.383 41.2621 156.478L50.5635 152.067C51.1399 152.428 51.3483 153.193 51.2382 153.861C51.1281 154.529 50.7613 155.123 50.3971 155.695C48.5438 158.606 46.5631 161.438 44.4626 164.178C43.5157 165.414 42.5394 166.636 41.3938 167.693ZM35.3649 164.831C35.2423 166.05 36.6525 166.983 37.878 166.838C39.1034 166.694 40.1081 165.832 40.9776 164.963C43.672 162.268 45.8889 159.103 47.4964 155.658C43.1481 157.149 39.2113 159.805 36.2137 163.27C35.8194 163.726 35.425 164.233 35.3649 164.831ZM153.008 117.983C151.531 116.541 149.235 115.858 147.365 116.7C144.932 117.797 144.067 120.896 144.067 123.61C144.065 129.963 147.394 136.219 152.62 139.679C153.031 139.951 153.615 139.732 153.915 139.337C154.215 138.941 154.304 138.425 154.384 137.932L154.992 134.175C155.561 130.656 156.13 127.063 155.57 123.542C155.242 121.485 154.484 119.424 153.008 117.983ZM146.199 123.403C146.194 122.458 146.516 121.516 147.096 120.78C147.445 120.339 147.893 119.966 148.419 119.785C149.604 119.378 150.949 120.052 151.68 121.087C152.41 122.121 152.643 123.433 152.745 124.704C152.993 127.814 152.564 130.979 151.498 133.903C151.424 134.105 151.314 134.335 151.106 134.37C150.854 134.414 150.667 134.147 150.548 133.916C149.3 131.493 148.136 129.025 147.057 126.52C146.628 125.524 146.206 124.49 146.199 123.403Z" fill="#407BFF"/>
<path fill-rule="evenodd" clip-rule="evenodd" d="M189.905 123.557C190.322 123.254 190.751 122.944 191.248 122.803C191.745 122.663 192.331 122.723 192.698 123.087C193.059 123.446 193.126 124.002 193.133 124.511C193.141 125.06 192.907 125.793 192.36 125.739C190.395 126.963 188.264 127.92 186.044 128.577C185.499 128.738 185.021 128.037 185.157 127.486C185.292 126.935 185.783 126.556 186.243 126.221C187.463 125.333 188.684 124.445 189.905 123.557Z" fill="#407BFF"/>
<path fill-rule="evenodd" clip-rule="evenodd" d="M194.636 140.473C194.249 140.598 193.891 140.809 193.492 140.891C192.106 141.178 190.845 139.654 191.016 138.27C191.187 136.886 192.358 135.804 193.638 135.207C194.917 134.61 196.337 134.378 197.679 133.93C198.19 133.759 198.726 133.529 199.007 133.074C199.232 132.71 199.255 132.261 199.253 131.834C199.244 130.189 198.956 128.546 198.404 126.994C198.707 126.223 199.963 126.356 200.471 127.014C200.978 127.672 201.002 128.558 201.156 129.37C201.565 131.516 202.979 133.318 204.063 135.223C205.148 137.128 205.921 139.485 204.971 141.458C204.79 141.834 204.547 142.187 204.222 142.454C202.894 143.541 200.884 142.817 199.417 141.921C197.949 141.025 196.277 139.945 194.636 140.473M201.125 137.58C200.542 137.71 200.296 138.456 200.489 139.012C200.682 139.569 201.167 139.969 201.631 140.339C202.22 140.81 203.196 140.19 203.229 139.444C203.262 138.698 202.651 138.058 201.967 137.735C201.705 137.611 201.409 137.517 201.125 137.58ZM195.065 138.045C195.33 138.211 195.682 138.091 195.949 137.929C196.263 137.739 196.544 137.496 196.774 137.213C196.335 137.004 195.841 136.791 195.376 136.936C194.911 137.081 194.654 137.786 195.065 138.045L195.065 138.045Z" fill="#407BFF"/>
</svg>
