<svg width="59" height="36" viewBox="0 0 59 36" fill="none" xmlns="http://www.w3.org/2000/svg">
<mask id="mask0" mask-type="alpha" maskUnits="userSpaceOnUse" x="0" y="0" width="59" height="36">
<rect width="58.0586" height="35.461" fill="#C4C4C4"/>
</mask>
<g mask="url(#mask0)">
<rect x="-3.47687" width="63.6211" height="4.17188" fill="#263238"/>
<rect width="37.2897" height="3.44097" transform="matrix(0.173648 -0.984808 -0.984808 -0.173648 4.87646 38.2334)" fill="#263238"/>
<rect x="53.1112" y="38.302" width="37.5801" height="3.44097" transform="rotate(-100 53.1112 38.302)" fill="#263238"/>
<path d="M9.74976 17.8851C12.0741 18.295 14.1414 19.6058 15.4968 21.5293C16.8523 23.4529 17.385 25.8314 16.9776 28.1418C16.5702 30.4522 15.2562 32.5052 13.3245 33.8491C11.3929 35.193 9.00198 35.7178 6.67766 35.3079L8.21371 26.5965L9.74976 17.8851Z" fill="#FFC3BD"/>
<path d="M48.3968 17.8851C46.0725 18.295 44.0052 19.6058 42.6497 21.5293C41.2942 23.4529 40.7616 25.8314 41.169 28.1418C41.5764 30.4522 42.8904 32.5052 44.822 33.8491C46.7536 35.193 49.1446 35.7178 51.4689 35.3079L49.9328 26.5965L48.3968 17.8851Z" fill="#FFC3BD"/>
<ellipse cx="29.2033" cy="21.4714" rx="13.9063" ry="13.823" fill="#FF575F"/>
<path fill-rule="evenodd" clip-rule="evenodd" d="M30.9784 19.8315L27.5409 23.2691L26.1748 21.9062L24.8088 20.5432L23.9167 21.4354L23.0244 22.3275L25.2824 24.5836L27.5402 26.8397L31.8705 22.5094L36.2008 18.1791L35.3083 17.2865L34.4158 16.394L30.9784 19.8315Z" fill="white"/>
</g>
</svg>
